<svg xmlns="http://www.w3.org/2000/svg" xmlns:xlink="http://www.w3.org/1999/xlink" width="144.157" height="40" viewBox="0 0 144.157 40">
  <defs>
    <clipPath id="clip-path">
      <path id="Tracciato_2" data-name="Tracciato 2" d="M0,0H144.157V-40H0Z" fill="#fff"/>
    </clipPath>
  </defs>
  <g id="Raggruppa_54" data-name="Raggruppa 54" transform="translate(0 40)">
    <g id="Raggruppa_2" data-name="Raggruppa 2" clip-path="url(#clip-path)">
      <g id="Raggruppa_1" data-name="Raggruppa 1" transform="translate(20.001)">
        <path id="Tracciato_1" data-name="Tracciato 1" d="M0,0A20.023,20.023,0,0,1-20-20,20.025,20.025,0,0,1,0-40,20.023,20.023,0,0,1,20-20,20.022,20.022,0,0,1,0,0M-.076-27.886c.025,0,1.624,1.712,1.624,3.084A1.686,1.686,0,0,1,0-22.963c-.02,0-.043,0-.068-.005H-.084c-.025,0-.051.005-.067.005A1.688,1.688,0,0,1-1.7-24.8c0-1.372,1.6-3.084,1.624-3.084m-15.06,9h1.825v-3.371h3.065v-1.412h-3.065v-1.873h3.165v-1.407h-4.99ZM1.578-27.643H3.5L1.265-35.706H-1.194l-2.318,8.063h1.783l.512-1.8H1.116Zm-.8-3.167H-.9l.78-3.507H.009Zm8.45,7.893c0,2.369,1.1,4.169,3.416,4.169s3.436-1.8,3.436-4.169-1.11-4.17-3.436-4.17-3.416,1.8-3.416,4.17m1.942,0c0-1.548.38-2.806,1.474-2.806s1.494,1.258,1.494,2.806-.4,2.807-1.494,2.807-1.474-1.26-1.474-2.807M-.853-2.231a27.043,27.043,0,0,0,.212-3.5v-.247c0-2.065-.076-2.762-1.454-3.22-2.129-.7-3-3.08-2.533-6.038l-7.12-18.111A17.749,17.749,0,0,0-17.788-20,17.81,17.81,0,0,0-.853-2.231m.845-11.547c-2.833-.661-3.885-3.243-3.885-5.535l-6.235-15.3c-.407.281-.8.582-1.184.9,1.371,3.25,7.526,17.856,7.534,17.876,1.088,2.624,3.071,1.755,3.55,3.921A4.84,4.84,0,0,1-.1-11.17H.107a4.261,4.261,0,0,1,.123-.754c.478-2.166,2.455-1.3,3.546-3.921.008-.02,6.163-14.626,7.532-17.876-.381-.313-.775-.614-1.184-.9l-6.233,15.3c0,2.292-1.054,4.874-3.887,5.535Zm0-4.62a3.9,3.9,0,0,1-2.894-3A6.839,6.839,0,0,1-2.946-23.3L-8.41-35.672q-.66.357-1.29.769C-8.066-31.231-3.071-20.016-3.067-20c.79,1.664,2.177,1.7,2.656,2.69a3.2,3.2,0,0,1,.318,1.156H.089a3.294,3.294,0,0,1,.318-1.156c.481-.993,1.868-1.026,2.656-2.69,0-.013,5-11.228,6.633-14.9-.415-.274-.847-.531-1.29-.769L2.948-23.3A6.58,6.58,0,0,1,2.9-21.4a3.9,3.9,0,0,1-2.887,3Zm.075-2.1.084-.674c.345-1.566,1.481-1.371,2.271-2.909l.013-.023c.023-.058,3.889-8.351,5.5-11.813A17.676,17.676,0,0,0,0-37.789a17.694,17.694,0,0,0-7.936,1.871C-6.323-32.456-2.459-24.163-2.428-24.1a.2.2,0,0,0,.011.023c.786,1.538,1.92,1.343,2.266,2.909l.083.674Zm17.725.5A17.769,17.769,0,0,0,11.75-33.346L4.623-15.235C5.1-12.277,4.219-9.9,2.091-9.2.713-8.739.637-8.042.637-5.977v.247a28.177,28.177,0,0,0,.212,3.5A17.81,17.81,0,0,0,17.789-20m-29.957,5.254s.262.559.477.955.5.876.5.876l-.47.273s-.356-.593-.683-1.279c-.09.046-.652.339-.746.385.054.1.631,1.21.631,1.21l-.475.274s-.584-1.135-.634-1.231c-.1.05-1.316.676-1.316.676l-.289-.576,2.97-1.546Zm1.876,3.044.413.5-2.6,2.172-.421-.5,2.574-2.151Zm2.408,2.278.513.368-.666,3.582-.59-.34s.148-.73.166-.8c-.029-.023-.372-.228-.706-.464s-.667-.513-.7-.534l-.716.423-.505-.431L-7.918-9.4ZM-9.387-7.9c.061.052.282.229.509.392s.464.314.532.345c.033-.149.27-1.327.319-1.545l-1.36.808m3.644-.2a12.124,12.124,0,0,0,1.328.54,12.984,12.984,0,0,0,1.426.425l-.154.515a10.451,10.451,0,0,1-1.11-.286c-.04.113-.932,2.666-.932,2.666L-5.8-4.456l.93-2.669A9.882,9.882,0,0,1-5.955-7.6Zm10.7.682a.97.97,0,0,1,.471.617,1.162,1.162,0,0,1,.06.357c0,.473-.331.845-.928,1.033L4.166-5.3c.034.107.391,1.254.391,1.254l-.6.153L2.956-7.15l.9-.28a1.449,1.449,0,0,1,1.1.007M3.7-6.809c.029.1.279.9.308.994.124-.036.395-.123.395-.123a.672.672,0,0,0,.4-.3.432.432,0,0,0,.051-.207.621.621,0,0,0-.029-.174.432.432,0,0,0-.216-.262.816.816,0,0,0-.583-.027l-.328.1M6.974-8.845,9.91-6.693l-.522.367-.649-.492c-.034.018-.337.233-.664.427-.307.186-.64.351-.673.369.014.078.129.8.129.8l-.561.268-.493-3.6Zm.335,2.28c.089-.043.317-.167.543-.3.2-.123.363-.224.445-.289-.118-.09-1.036-.787-1.226-.935.039.24.216,1.377.238,1.527m3.019-5.244,2.561,2.284-.461.541s-2.4-.7-2.766-.8c.271.259,1.761,1.83,1.761,1.83l-.45.406L8.561-10l.566-.508s2.317.691,2.681.787c-.27-.256-1.869-1.632-1.869-1.632Zm1.171-1.7,2.966,1.72-.3.521L11.182-13Zm1.285-2.846.509.264-.051.06a1.457,1.457,0,0,0-.318.53.6.6,0,0,0-.008.451.325.325,0,0,0,.2.166c.227.076.422-.12.646-.349a1.217,1.217,0,0,1,1.327-.5c.637.216.853.782.59,1.555a2.437,2.437,0,0,1-.359.622l-.032.04-.526-.245.053-.061a1.97,1.97,0,0,0,.365-.586.536.536,0,0,0-.27-.719c-.282-.1-.494.122-.742.376-.3.316-.644.672-1.212.478a.9.9,0,0,1-.542-.453,1.2,1.2,0,0,1-.013-.932,2.18,2.18,0,0,1,.351-.658Z" fill="#fff"/>
      </g>
    </g>
    <g id="Raggruppa_3" data-name="Raggruppa 3" transform="translate(47.116 -35.783)">
      <path id="Tracciato_3" data-name="Tracciato 3" d="M0,0H3.986V1.152H1.445V3.3H3.873V4.449H1.445V7.881H0Z" fill="#fff"/>
    </g>
    <g id="Raggruppa_10" data-name="Raggruppa 10" clip-path="url(#clip-path)">
      <g id="Raggruppa_4" data-name="Raggruppa 4" transform="translate(54.241 -33.807)">
        <path id="Tracciato_4" data-name="Tracciato 4" d="M0,0C1.185,0,2.552.621,2.552,2.992,2.552,5.431,1.185,6,0,6s-2.563-.565-2.563-3C-2.563.621-1.186,0,0,0M0,5c.9,0,1.107-1.039,1.107-2.01S.9.994,0,.994s-1.118,1.027-1.118,2S-.9,5,0,5" fill="#fff"/>
      </g>
      <g id="Raggruppa_5" data-name="Raggruppa 5" transform="translate(60.28 -33.807)">
        <path id="Tracciato_5" data-name="Tracciato 5" d="M0,0C1.185,0,2.552.621,2.552,2.992,2.552,5.431,1.185,6,0,6s-2.563-.565-2.563-3C-2.563.621-1.186,0,0,0M0,5c.9,0,1.107-1.039,1.107-2.01S.9.994,0,.994s-1.118,1.027-1.118,2S-.9,5,0,5" fill="#fff"/>
      </g>
      <g id="Raggruppa_6" data-name="Raggruppa 6" transform="translate(68.691 -36.37)">
        <path id="Tracciato_6" data-name="Tracciato 6" d="M0,0V7.475a7.481,7.481,0,0,0,.045.994H-1.264a7.673,7.673,0,0,1-.046-.9h-.034a1.566,1.566,0,0,1-1.547.994c-1.445,0-2.043-1.377-2.043-2.992,0-1.9.756-3,2.01-3a1.562,1.562,0,0,1,1.5.926H-1.4V0ZM-2.507,7.532c.825,0,1.107-.893,1.107-1.988,0-1.129-.316-1.953-1.084-1.953s-1.05.756-1.05,1.919c0,1.344.214,2.022,1.027,2.022" fill="#fff"/>
      </g>
      <g id="Raggruppa_7" data-name="Raggruppa 7" transform="translate(73.148 -33.378)">
        <path id="Tracciato_7" data-name="Tracciato 7" d="M0,0A4.063,4.063,0,0,1,1.84-.429c1.807,0,2.225.881,2.225,2.337V4.449a7.132,7.132,0,0,0,.079,1.027H2.88a2.871,2.871,0,0,1-.08-.79H2.778a1.871,1.871,0,0,1-1.626.881,1.668,1.668,0,0,1-1.739-1.7c0-1.581,1.287-1.976,3.06-1.976h.282V1.671A1,1,0,0,0,1.671.565a2.688,2.688,0,0,0-1.592.564ZM2.755,2.631H2.631c-1.2,0-1.908.248-1.908,1.1a.841.841,0,0,0,.892.892c.835,0,1.14-.621,1.14-1.66Z" fill="#fff"/>
      </g>
      <g id="Raggruppa_8" data-name="Raggruppa 8" transform="translate(78.488 -32.757)">
        <path id="Tracciato_8" data-name="Tracciato 8" d="M0,0A7.917,7.917,0,0,0-.045-.96h1.31c.011.294.045.6.045.893h.023A1.694,1.694,0,0,1,2.879-1.05C4.2-1.05,4.6-.067,4.6,1.107V4.855h-1.4V1.367C3.195.474,2.97.1,2.394.1,1.66.1,1.4.723,1.4,1.468V4.855H0Z" fill="#fff"/>
      </g>
      <g id="Raggruppa_9" data-name="Raggruppa 9" transform="translate(89.101 -36.37)">
        <path id="Tracciato_9" data-name="Tracciato 9" d="M0,0V7.475a7.481,7.481,0,0,0,.045.994h-1.31a7.959,7.959,0,0,1-.045-.9h-.034a1.566,1.566,0,0,1-1.547.994c-1.445,0-2.043-1.377-2.043-2.992,0-1.9.756-3,2.01-3a1.562,1.562,0,0,1,1.5.926H-1.4V0ZM-2.507,7.532c.825,0,1.107-.893,1.107-1.988,0-1.129-.316-1.953-1.084-1.953s-1.05.756-1.05,1.919c0,1.344.214,2.022,1.027,2.022" fill="#fff"/>
      </g>
    </g>
    <g id="Raggruppa_11" data-name="Raggruppa 11" transform="translate(96.812 -29.798)">
      <path id="Tracciato_11" data-name="Tracciato 11" d="M0,0H-2.71l-.564,1.9H-4.72l2.642-7.881H-.5L2.044,1.9H.553ZM-.305-1.107-1.3-4.787h-.022L-2.4-1.107Z" fill="#fff"/>
    </g>
    <g id="Raggruppa_14" data-name="Raggruppa 14" clip-path="url(#clip-path)">
      <g id="Raggruppa_12" data-name="Raggruppa 12" transform="translate(99.712 -26.998)">
        <path id="Tracciato_12" data-name="Tracciato 12" d="M0,0A3.686,3.686,0,0,0,1.716.5C3.037.5,3.252-.418,3.252-1.332v-.553H3.229A1.592,1.592,0,0,1,1.694-.9C.881-.9-.339-1.445-.339-3.794c0-1.6.576-3.015,2.1-3.015A1.664,1.664,0,0,1,3.3-5.815h.045c0-.3.034-.6.045-.9H4.652c-.023.3-.045.609-.045.914v4.291C4.607.305,4.054,1.6,1.919,1.6a5.86,5.86,0,0,1-2-.362ZM2.021-1.931c.881,0,1.231-.632,1.231-1.953,0-1.219-.463-1.875-1.129-1.863-.734.011-1.016.688-1.016,1.874,0,1.366.44,1.942.914,1.942" fill="#fff"/>
      </g>
      <g id="Raggruppa_13" data-name="Raggruppa 13" transform="translate(105.616 -32.757)">
        <path id="Tracciato_13" data-name="Tracciato 13" d="M0,0A7.917,7.917,0,0,0-.045-.96H1.22c.011.35.045.712.045,1.062h.022A1.623,1.623,0,0,1,2.766-1.05,1.532,1.532,0,0,1,3-1.016V.294a1.456,1.456,0,0,0-.4-.057C2.032.237,1.4.587,1.4,1.671V4.855H0Z" fill="#fff"/>
      </g>
    </g>
    <path id="Tracciato_15" data-name="Tracciato 15" d="M109.634-36.189h1.445v1.377h-1.445Zm.023,2.473h1.4V-27.9h-1.4Z" fill="#fff"/>
    <g id="Raggruppa_17" data-name="Raggruppa 17" clip-path="url(#clip-path)">
      <g id="Raggruppa_15" data-name="Raggruppa 15" transform="translate(116.386 -28.048)">
        <path id="Tracciato_16" data-name="Tracciato 16" d="M0,0A3.986,3.986,0,0,1-1.377.237C-3.3.237-4.11-1.107-4.11-2.755a2.683,2.683,0,0,1,2.812-3,3.811,3.811,0,0,1,1.219.238L-.158-4.415A2.247,2.247,0,0,0-1.14-4.7c-1.062,0-1.525.711-1.525,1.953,0,1.084.52,1.92,1.592,1.92a2.236,2.236,0,0,0,.994-.283Z" fill="#fff"/>
      </g>
      <g id="Raggruppa_16" data-name="Raggruppa 16" transform="translate(121.816 -28.861)">
        <path id="Tracciato_17" data-name="Tracciato 17" d="M0,0A7.917,7.917,0,0,0,.045.96h-1.31C-1.276.666-1.31.361-1.31.067L-1.344.056l.011.011a1.69,1.69,0,0,1-1.546.983C-4.2,1.05-4.6.067-4.6-1.107V-4.855h1.4v3.488C-3.2-.474-2.947-.1-2.36-.1c.745,0,.96-.677.96-1.422V-4.855H0Z" fill="#fff"/>
      </g>
    </g>
    <path id="Tracciato_19" data-name="Tracciato 19" d="M123.192-36.37h1.4V-27.9h-1.4Z" fill="#fff"/>
    <g id="Raggruppa_27" data-name="Raggruppa 27" clip-path="url(#clip-path)">
      <g id="Raggruppa_18" data-name="Raggruppa 18" transform="translate(126.489 -34.913)">
        <path id="Tracciato_20" data-name="Tracciato 20" d="M0,0,1.4-.429V1.2H2.563V2.224H1.4V5.239c0,.621.226.8.632.8a1.108,1.108,0,0,0,.531-.124V6.91a2.153,2.153,0,0,1-.937.192C.587,7.1,0,6.628,0,5.409V2.224H-.926V1.2H0Z" fill="#fff"/>
      </g>
      <g id="Raggruppa_19" data-name="Raggruppa 19" transform="translate(134.516 -28.861)">
        <path id="Tracciato_21" data-name="Tracciato 21" d="M0,0A7.917,7.917,0,0,0,.045.96h-1.31C-1.276.666-1.31.361-1.31.067L-1.344.056l.011.011a1.692,1.692,0,0,1-1.546.983C-4.2,1.05-4.6.067-4.6-1.107V-4.855h1.4v3.488C-3.2-.474-2.947-.1-2.36-.1c.745,0,.96-.677.96-1.422V-4.855H0Z" fill="#fff"/>
      </g>
      <g id="Raggruppa_20" data-name="Raggruppa 20" transform="translate(135.802 -32.757)">
        <path id="Tracciato_22" data-name="Tracciato 22" d="M0,0A7.917,7.917,0,0,0-.045-.96H1.219c.012.35.045.712.045,1.062h.023A1.623,1.623,0,0,1,2.767-1.05,1.536,1.536,0,0,1,3-1.016V.294a1.45,1.45,0,0,0-.4-.057C2.032.237,1.4.587,1.4,1.671V4.855H0Z" fill="#fff"/>
      </g>
      <g id="Raggruppa_21" data-name="Raggruppa 21" transform="translate(143.863 -28.184)">
        <path id="Tracciato_23" data-name="Tracciato 23" d="M0,0A4.329,4.329,0,0,1-1.739.373,2.6,2.6,0,0,1-4.426-2.541c0-1.738.915-3.082,2.394-3.082,1.253,0,2.326.734,2.326,3.105v.271H-3.071c0,.994.395,1.592,1.479,1.592A2.308,2.308,0,0,0-.068-1.107ZM-1.061-3.128c0-1.027-.339-1.547-.971-1.547-.734,0-1.039.78-1.039,1.547Z" fill="#fff"/>
      </g>
      <g id="Raggruppa_22" data-name="Raggruppa 22" transform="translate(49.939 -23.195)">
        <path id="Tracciato_24" data-name="Tracciato 24" d="M0,0C1.637,0,3.139,1.22,3.139,4.054S1.637,8.107,0,8.107-3.139,6.888-3.139,4.054-1.637,0,0,0M0,7c.914,0,1.648-.779,1.648-2.947S.914,1.107,0,1.107s-1.649.779-1.649,2.947S-.915,7,0,7" fill="#fff"/>
      </g>
      <g id="Raggruppa_23" data-name="Raggruppa 23" transform="translate(54.25 -20.057)">
        <path id="Tracciato_25" data-name="Tracciato 25" d="M0,0A7.917,7.917,0,0,0-.045-.96H1.22c.011.35.045.712.045,1.062h.022A1.623,1.623,0,0,1,2.766-1.05,1.549,1.549,0,0,1,3-1.016V.294a1.456,1.456,0,0,0-.4-.057C2.033.237,1.4.587,1.4,1.671V4.855H0Z" fill="#fff"/>
      </g>
      <g id="Raggruppa_24" data-name="Raggruppa 24" transform="translate(58.224 -14.298)">
        <path id="Tracciato_26" data-name="Tracciato 26" d="M0,0A3.686,3.686,0,0,0,1.716.5C3.037.5,3.252-.418,3.252-1.332v-.553H3.229A1.592,1.592,0,0,1,1.694-.9C.881-.9-.339-1.445-.339-3.794c0-1.6.576-3.015,2.1-3.015A1.664,1.664,0,0,1,3.3-5.815h.045c0-.3.034-.6.045-.9H4.652c-.023.3-.045.609-.045.915v4.29C4.607.305,4.054,1.6,1.919,1.6a5.86,5.86,0,0,1-2-.362ZM2.021-1.931c.881,0,1.231-.632,1.231-1.953,0-1.219-.463-1.875-1.129-1.863-.734.011-1.016.688-1.016,1.874,0,1.366.44,1.942.914,1.942" fill="#fff"/>
      </g>
      <g id="Raggruppa_25" data-name="Raggruppa 25" transform="translate(64.365 -20.677)">
        <path id="Tracciato_27" data-name="Tracciato 27" d="M0,0A4.05,4.05,0,0,1,1.84-.429c1.807,0,2.225.881,2.225,2.337V4.449a7.132,7.132,0,0,0,.079,1.027H2.88a2.871,2.871,0,0,1-.08-.79H2.778a1.871,1.871,0,0,1-1.626.881,1.669,1.669,0,0,1-1.739-1.7c0-1.581,1.287-1.976,3.06-1.976h.282V1.671A1,1,0,0,0,1.671.565a2.682,2.682,0,0,0-1.592.564ZM2.755,2.631H2.631c-1.2,0-1.908.248-1.908,1.1a.841.841,0,0,0,.892.892c.835,0,1.14-.621,1.14-1.66Z" fill="#fff"/>
      </g>
      <g id="Raggruppa_26" data-name="Raggruppa 26" transform="translate(69.704 -20.057)">
        <path id="Tracciato_28" data-name="Tracciato 28" d="M0,0A7.917,7.917,0,0,0-.045-.96h1.31c.011.294.045.6.045.892h.023A1.7,1.7,0,0,1,2.879-1.05C4.2-1.05,4.6-.068,4.6,1.107V4.855h-1.4V1.366C3.195.474,2.97.1,2.394.1,1.66.1,1.4.723,1.4,1.468V4.855H0Z" fill="#fff"/>
      </g>
    </g>
    <path id="Tracciato_30" data-name="Tracciato 30" d="M75.654-23.489H77.1v1.377H75.654Zm.022,2.473h1.4V-15.2h-1.4Z" fill="#fff"/>
    <g id="Raggruppa_28" data-name="Raggruppa 28" transform="translate(78.137 -16.41)">
      <path id="Tracciato_31" data-name="Tracciato 31" d="M0,0,2.484-3.545H.079V-4.607H3.884v1.2L1.445.147H3.963V1.208H0Z" fill="#fff"/>
    </g>
    <g id="Raggruppa_31" data-name="Raggruppa 31" clip-path="url(#clip-path)">
      <g id="Raggruppa_29" data-name="Raggruppa 29" transform="translate(83.307 -20.677)">
        <path id="Tracciato_32" data-name="Tracciato 32" d="M0,0A4.05,4.05,0,0,1,1.84-.429c1.807,0,2.225.881,2.225,2.337V4.449a7.132,7.132,0,0,0,.079,1.027H2.88a2.871,2.871,0,0,1-.08-.79H2.778a1.871,1.871,0,0,1-1.626.881,1.669,1.669,0,0,1-1.739-1.7c0-1.581,1.287-1.976,3.06-1.976h.282V1.671A1,1,0,0,0,1.671.565a2.682,2.682,0,0,0-1.592.564ZM2.755,2.631H2.631c-1.2,0-1.908.248-1.908,1.1a.841.841,0,0,0,.892.892c.835,0,1.14-.621,1.14-1.66Z" fill="#fff"/>
      </g>
      <g id="Raggruppa_30" data-name="Raggruppa 30" transform="translate(89.166 -22.213)">
        <path id="Tracciato_33" data-name="Tracciato 33" d="M0,0,1.4-.429V1.2H2.563V2.224H1.4V5.239c0,.621.226.8.632.8a1.108,1.108,0,0,0,.531-.124V6.91a2.153,2.153,0,0,1-.937.192C.587,7.1,0,6.628,0,5.409V2.224H-.926V1.2H0Z" fill="#fff"/>
      </g>
    </g>
    <path id="Tracciato_35" data-name="Tracciato 35" d="M92.711-23.489h1.445v1.377H92.711Zm.023,2.473h1.4V-15.2h-1.4Z" fill="#fff"/>
    <g id="Raggruppa_41" data-name="Raggruppa 41" clip-path="url(#clip-path)">
      <g id="Raggruppa_32" data-name="Raggruppa 32" transform="translate(97.916 -21.107)">
        <path id="Tracciato_36" data-name="Tracciato 36" d="M0,0C1.185,0,2.552.621,2.552,2.992,2.552,5.431,1.185,6,0,6s-2.563-.565-2.563-3C-2.563.621-1.186,0,0,0M0,5c.9,0,1.107-1.039,1.107-2.01S.9.994,0,.994s-1.118,1.027-1.118,2S-.9,5,0,5" fill="#fff"/>
      </g>
      <g id="Raggruppa_33" data-name="Raggruppa 33" transform="translate(101.55 -20.057)">
        <path id="Tracciato_37" data-name="Tracciato 37" d="M0,0A7.917,7.917,0,0,0-.045-.96h1.31c.011.294.045.6.045.892h.023A1.7,1.7,0,0,1,2.879-1.05C4.2-1.05,4.6-.068,4.6,1.107V4.855h-1.4V1.366C3.195.474,2.97.1,2.394.1,1.66.1,1.4.723,1.4,1.468V4.855H0Z" fill="#fff"/>
      </g>
      <g id="Raggruppa_34" data-name="Raggruppa 34" transform="translate(112.704 -21.107)">
        <path id="Tracciato_38" data-name="Tracciato 38" d="M0,0C1.185,0,2.552.621,2.552,2.992,2.552,5.431,1.185,6,0,6s-2.563-.565-2.563-3C-2.563.621-1.186,0,0,0M0,5c.9,0,1.107-1.039,1.107-2.01S.9.994,0,.994s-1.118,1.027-1.118,2S-.9,5,0,5" fill="#fff"/>
      </g>
      <g id="Raggruppa_35" data-name="Raggruppa 35" transform="translate(116.79 -19.989)">
        <path id="Tracciato_39" data-name="Tracciato 39" d="M0,0H-.971V-1.027H0V-2.213a1.472,1.472,0,0,1,1.671-1.6,4.951,4.951,0,0,1,1.005.135L2.62-2.665a2.112,2.112,0,0,0-.554-.09.651.651,0,0,0-.666.723v1.005H2.461V0H1.4V4.788H0Z" fill="#fff"/>
      </g>
      <g id="Raggruppa_36" data-name="Raggruppa 36" transform="translate(123.507 -22.213)">
        <path id="Tracciato_40" data-name="Tracciato 40" d="M0,0,1.4-.429V1.2H2.563V2.224H1.4V5.239c0,.621.226.8.632.8a1.108,1.108,0,0,0,.531-.124V6.91a2.153,2.153,0,0,1-.937.192C.587,7.1,0,6.628,0,5.409V2.224H-.926V1.2H0Z" fill="#fff"/>
      </g>
      <g id="Raggruppa_37" data-name="Raggruppa 37" transform="translate(126.938 -23.67)">
        <path id="Tracciato_41" data-name="Tracciato 41" d="M0,0H1.4V3.4h.034a1.576,1.576,0,0,1,1.445-.836C4.2,2.563,4.6,3.546,4.6,4.72V8.469h-1.4V4.98c0-.892-.225-1.265-.8-1.265-.734,0-.994.621-.994,1.366V8.469H0Z" fill="#fff"/>
      </g>
      <g id="Raggruppa_38" data-name="Raggruppa 38" transform="translate(137.043 -15.483)">
        <path id="Tracciato_42" data-name="Tracciato 42" d="M0,0A4.328,4.328,0,0,1-1.738.373,2.6,2.6,0,0,1-4.426-2.541c0-1.738.915-3.082,2.394-3.082,1.253,0,2.326.734,2.326,3.105v.271H-3.071c0,.994.395,1.592,1.479,1.592A2.308,2.308,0,0,0-.068-1.107ZM-1.061-3.128c0-1.027-.339-1.547-.971-1.547-.734,0-1.039.78-1.039,1.547Z" fill="#fff"/>
      </g>
      <g id="Raggruppa_39" data-name="Raggruppa 39" transform="translate(48.493 -10.382)">
        <path id="Tracciato_43" data-name="Tracciato 43" d="M0,0V5.1C0,6.413.4,6.843,1.242,6.843c.824,0,1.231-.43,1.231-1.739V0H3.918V5.1c0,2.077-1.2,2.89-2.676,2.89S-1.445,7.181-1.445,5.1V0Z" fill="#fff"/>
      </g>
      <g id="Raggruppa_40" data-name="Raggruppa 40" transform="translate(53.787 -7.357)">
        <path id="Tracciato_44" data-name="Tracciato 44" d="M0,0A7.917,7.917,0,0,0-.045-.96h1.31c.011.294.045.6.045.893h.023A1.694,1.694,0,0,1,2.879-1.05C4.2-1.05,4.6-.067,4.6,1.107V4.855h-1.4V1.367C3.195.474,2.97.1,2.394.1,1.66.1,1.4.723,1.4,1.468V4.855H0Z" fill="#fff"/>
      </g>
    </g>
    <path id="Tracciato_46" data-name="Tracciato 46" d="M59.737-10.789h1.445v1.377H59.737Zm.022,2.473h1.4V-2.5h-1.4Z" fill="#fff"/>
    <g id="Raggruppa_45" data-name="Raggruppa 45" clip-path="url(#clip-path)">
      <g id="Raggruppa_42" data-name="Raggruppa 42" transform="translate(63.056 -9.513)">
        <path id="Tracciato_47" data-name="Tracciato 47" d="M0,0,1.4-.429V1.2H2.563V2.224H1.4V5.239c0,.621.226.8.632.8a1.108,1.108,0,0,0,.531-.124V6.91a2.153,2.153,0,0,1-.937.192C.587,7.1,0,6.628,0,5.409V2.224H-.926V1.2H0Z" fill="#fff"/>
      </g>
      <g id="Raggruppa_43" data-name="Raggruppa 43" transform="translate(70.755 -2.783)">
        <path id="Tracciato_48" data-name="Tracciato 48" d="M0,0A4.334,4.334,0,0,1-1.739.373,2.6,2.6,0,0,1-4.426-2.541c0-1.738.914-3.082,2.394-3.082,1.253,0,2.326.734,2.326,3.105v.271H-3.071c0,.994.395,1.592,1.479,1.592A2.308,2.308,0,0,0-.068-1.107ZM-1.061-3.128c0-1.027-.339-1.547-.971-1.547-.734,0-1.039.78-1.039,1.547Z" fill="#fff"/>
      </g>
      <g id="Raggruppa_44" data-name="Raggruppa 44" transform="translate(76.885 -10.97)">
        <path id="Tracciato_49" data-name="Tracciato 49" d="M0,0V7.475a7.481,7.481,0,0,0,.045.994H-1.264a7.673,7.673,0,0,1-.046-.9h-.034a1.566,1.566,0,0,1-1.547.994c-1.445,0-2.043-1.377-2.043-2.992,0-1.9.756-3,2.01-3a1.562,1.562,0,0,1,1.5.926H-1.4V0ZM-2.507,7.532c.825,0,1.107-.893,1.107-1.988,0-1.129-.316-1.953-1.084-1.953s-1.05.756-1.05,1.919c0,1.344.214,2.022,1.027,2.022" fill="#fff"/>
      </g>
    </g>
    <g id="Raggruppa_46" data-name="Raggruppa 46" transform="translate(81.253 -10.382)">
      <path id="Tracciato_51" data-name="Tracciato 51" d="M0,0H1.716l2.62,6.188h.022V0h1.31V7.881H3.941L1.332,1.739H1.31V7.881H0Z" fill="#fff"/>
    </g>
    <g id="Raggruppa_49" data-name="Raggruppa 49" clip-path="url(#clip-path)">
      <g id="Raggruppa_47" data-name="Raggruppa 47" transform="translate(88.636 -7.977)">
        <path id="Tracciato_52" data-name="Tracciato 52" d="M0,0A4.051,4.051,0,0,1,1.841-.429c1.806,0,2.224.881,2.224,2.337V4.449a7.132,7.132,0,0,0,.079,1.027H2.879a2.913,2.913,0,0,1-.078-.79H2.778a1.871,1.871,0,0,1-1.626.881A1.669,1.669,0,0,1-.587,3.861c0-1.58,1.287-1.975,3.06-1.975h.282V1.671A1,1,0,0,0,1.671.565a2.682,2.682,0,0,0-1.592.564ZM2.755,2.631H2.631c-1.2,0-1.908.248-1.908,1.1a.841.841,0,0,0,.892.892c.835,0,1.14-.621,1.14-1.66Z" fill="#fff"/>
      </g>
      <g id="Raggruppa_48" data-name="Raggruppa 48" transform="translate(94.495 -9.513)">
        <path id="Tracciato_53" data-name="Tracciato 53" d="M0,0,1.4-.429V1.2H2.563V2.224H1.4V5.239c0,.621.226.8.632.8a1.108,1.108,0,0,0,.531-.124V6.91a2.153,2.153,0,0,1-.937.192C.587,7.1,0,6.628,0,5.409V2.224H-.926V1.2H0Z" fill="#fff"/>
      </g>
    </g>
    <path id="Tracciato_55" data-name="Tracciato 55" d="M98.039-10.789h1.445v1.377H98.039Zm.023,2.473h1.4V-2.5h-1.4Z" fill="#fff"/>
    <g id="Raggruppa_53" data-name="Raggruppa 53" clip-path="url(#clip-path)">
      <g id="Raggruppa_50" data-name="Raggruppa 50" transform="translate(103.244 -8.407)">
        <path id="Tracciato_56" data-name="Tracciato 56" d="M0,0C1.185,0,2.552.621,2.552,2.992,2.552,5.431,1.185,6,0,6s-2.563-.565-2.563-3C-2.563.621-1.186,0,0,0M0,5c.9,0,1.107-1.039,1.107-2.01S.9.994,0,.994s-1.118,1.027-1.118,2S-.9,5,0,5" fill="#fff"/>
      </g>
      <g id="Raggruppa_51" data-name="Raggruppa 51" transform="translate(106.878 -7.357)">
        <path id="Tracciato_57" data-name="Tracciato 57" d="M0,0A7.917,7.917,0,0,0-.045-.96h1.31c.011.294.045.6.045.893h.023A1.694,1.694,0,0,1,2.879-1.05C4.2-1.05,4.6-.067,4.6,1.107V4.855h-1.4V1.367C3.195.474,2.97.1,2.394.1,1.66.1,1.4.723,1.4,1.468V4.855H0Z" fill="#fff"/>
      </g>
      <g id="Raggruppa_52" data-name="Raggruppa 52" transform="translate(112.557 -3.856)">
        <path id="Tracciato_58" data-name="Tracciato 58" d="M0,0A3.747,3.747,0,0,0,1.457.384c.508,0,.9-.124.9-.576,0-.226-.113-.44-.621-.734l-.576-.339C.576-1.615-.068-1.987-.068-2.9a1.852,1.852,0,0,1,2.01-1.649A4.663,4.663,0,0,1,3.4-4.313L3.32-3.229a3.2,3.2,0,0,0-1.231-.26c-.565,0-.8.215-.8.565,0,.316.248.485.655.745l.689.44c.722.463,1.084.79,1.084,1.468,0,1.073-.9,1.716-2.168,1.716A4.712,4.712,0,0,1-.068,1.163Z" fill="#fff"/>
      </g>
    </g>
  </g>
</svg>
