<svg xmlns="http://www.w3.org/2000/svg" xmlns:xlink="http://www.w3.org/1999/xlink" width="69.989" height="69.989" viewBox="0 0 69.989 69.989">
  <defs>
    <filter id="Path_10735" x="0" y="0" width="69.989" height="69.989" filterUnits="userSpaceOnUse">
      <feOffset input="SourceAlpha"/>
      <feGaussianBlur stdDeviation="5" result="blur"/>
      <feFlood flood-opacity="0.204"/>
      <feComposite operator="in" in2="blur"/>
      <feComposite in="SourceGraphic"/>
    </filter>
    <filter id="Path_67" x="14.686" y="8.495" width="40.616" height="53" filterUnits="userSpaceOnUse">
      <feOffset input="SourceAlpha"/>
      <feGaussianBlur stdDeviation="5" result="blur-2"/>
      <feFlood flood-opacity="0.2"/>
      <feComposite operator="in" in2="blur-2"/>
      <feComposite in="SourceGraphic"/>
    </filter>
  </defs>
  <g id="Group_73" data-name="Group 73" transform="translate(15 15)">
    <g id="Group_67" data-name="Group 67">
      <g transform="matrix(1, 0, 0, 1, -15, -15)" filter="url(#Path_10735)">
        <g id="Path_10735-2" data-name="Path 10735" transform="translate(15 15)" fill="none">
          <path d="M19.994,0A19.994,19.994,0,1,1,0,19.994,19.994,19.994,0,0,1,19.994,0Z" stroke="none"/>
          <path d="M 19.99436378479004 1.500003814697266 C 15.05434417724609 1.500003814697266 10.41000366210938 3.423755645751953 6.916873931884766 6.916873931884766 C 3.423755645751953 10.41000366210938 1.500003814697266 15.05434417724609 1.500003814697266 19.99436378479004 C 1.500003814697266 24.93438339233398 3.423755645751953 29.5787239074707 6.916873931884766 33.07185363769531 C 10.41000366210938 36.56497192382812 15.05434417724609 38.48872375488281 19.99436378479004 38.48872375488281 C 24.93438339233398 38.48872375488281 29.5787239074707 36.56497192382812 33.07185363769531 33.07185363769531 C 36.56497192382812 29.5787239074707 38.48872375488281 24.93438339233398 38.48872375488281 19.99436378479004 C 38.48872375488281 15.05434417724609 36.56497192382812 10.41000366210938 33.07185363769531 6.916873931884766 C 29.5787239074707 3.423755645751953 24.93438339233398 1.500003814697266 19.99436378479004 1.500003814697266 M 19.99436378479004 3.814697265625e-06 C 31.03694343566895 3.814697265625e-06 39.98872375488281 8.951784133911133 39.98872375488281 19.99436378479004 C 39.98872375488281 31.03694343566895 31.03694343566895 39.98872375488281 19.99436378479004 39.98872375488281 C 8.951784133911133 39.98872375488281 3.814697265625e-06 31.03694343566895 3.814697265625e-06 19.99436378479004 C 3.814697265625e-06 8.951784133911133 8.951784133911133 3.814697265625e-06 19.99436378479004 3.814697265625e-06 Z" stroke="none" fill="#fff"/>
        </g>
      </g>
    </g>
    <g transform="matrix(1, 0, 0, 1, -15, -15)" filter="url(#Path_67)">
      <path id="Path_67-2" data-name="Path 67" d="M387.085,159.033h4.631v-11.6h3.231l.345-3.883h-3.576V141.34c0-.916.184-1.278,1.07-1.278h2.506v-4.03h-3.207c-3.446,0-5,1.518-5,4.423v3.1h-2.409v3.932h2.409Z" transform="translate(-354.99 -112.54)" fill="#fff"/>
    </g>
  </g>
</svg>
