<svg xmlns="http://www.w3.org/2000/svg" xmlns:xlink="http://www.w3.org/1999/xlink" width="32.193" height="32.193" viewBox="0 0 32.193 32.193"><defs><filter id="a" x="10.45" y="5.404" width="10.151" height="20.823" filterUnits="userSpaceOnUse"><feOffset dx="1" dy="1" input="SourceAlpha"/><feGaussianBlur stdDeviation="0.5" result="b"/><feFlood flood-opacity="0.502"/><feComposite operator="in" in2="b"/><feComposite in="SourceGraphic"/></filter><filter id="c" x="0" y="0" width="32.193" height="32.193" filterUnits="userSpaceOnUse"><feOffset dx="1" dy="1" input="SourceAlpha"/><feGaussianBlur stdDeviation="0.5" result="d"/><feFlood flood-opacity="0.502"/><feComposite operator="in" in2="d"/><feComposite in="SourceGraphic"/></filter></defs><g transform="translate(-1473.193 -1093.193)"><g transform="translate(1484.143 1099.096)"><g transform="matrix(1, 0, 0, 1, -10.95, -5.9)" filter="url(#a)"><path d="M960.723,562.969l-.306-.648,1.675-1.234q1.283-.9,1.724-1.149a6.965,6.965,0,0,1,1.259-.562,2.222,2.222,0,0,1,.6-.1.691.691,0,0,1,.52.244.953.953,0,0,1,.226.672,5.04,5.04,0,0,1-.1.966q-.159.783-.88,3.411t-.893,3.441a6.722,6.722,0,0,0-.171,1.07.428.428,0,0,0,.1.306.308.308,0,0,0,.226.11,1.163,1.163,0,0,0,.464-.171,16.467,16.467,0,0,0,1.614-.99l.33.648q-.966.685-2.188,1.473a10.465,10.465,0,0,1-1.8,1,2.058,2.058,0,0,1-.709.135.864.864,0,0,1-.685-.312,1.442,1.442,0,0,1-.269-.96,5.425,5.425,0,0,1,.11-1.063q.134-.734.636-2.616a31.97,31.97,0,0,0,1.027-4.572.346.346,0,0,0-.079-.244.264.264,0,0,0-.2-.086A6.216,6.216,0,0,0,960.723,562.969Zm3.777-7.384a1.8,1.8,0,0,1,.5-1.314,1.634,1.634,0,0,1,1.216-.507,1.281,1.281,0,0,1,1.357,1.357,2.018,2.018,0,0,1-.477,1.4,1.554,1.554,0,0,1-1.21.532,1.346,1.346,0,0,1-1.015-.379A1.5,1.5,0,0,1,964.5,555.585Z" transform="translate(-949.47 -547.86)" fill="#fff"/></g></g><g transform="matrix(1, 0, 0, 1, 1473.19, 1093.19)" filter="url(#c)"><path d="M14.6,2.246A12.351,12.351,0,1,0,26.948,14.6,12.365,12.365,0,0,0,14.6,2.246M14.6,0A14.6,14.6,0,1,1,0,14.6,14.6,14.6,0,0,1,14.6,0Z" transform="translate(0.5 0.5)" fill="#fff"/></g></g></svg>