<svg xmlns="http://www.w3.org/2000/svg" xmlns:xlink="http://www.w3.org/1999/xlink" width="162.177" height="45" viewBox="0 0 162.177 45">
  <defs>
    <clipPath id="clip-path">
      <path id="Path_2" data-name="Path 2" d="M0,5H162.177V-40H0Z" transform="translate(0 40)"/>
    </clipPath>
  </defs>
  <g id="FAO_logo_EN_black" transform="translate(0 0)">
    <g id="Group_2" data-name="Group 2" clip-path="url(#clip-path)">
      <g id="Group_1" data-name="Group 1" transform="translate(0)">
        <path id="Path_1" data-name="Path 1" d="M2.5,5A22.526,22.526,0,0,1-20-17.5,22.528,22.528,0,0,1,2.5-40,22.526,22.526,0,0,1,25-17.5,22.524,22.524,0,0,1,2.5,5M2.415-26.372c.028,0,1.827,1.926,1.827,3.469A1.9,1.9,0,0,1,2.5-20.833c-.023,0-.048,0-.076-.006H2.406c-.028,0-.057.006-.075.006A1.9,1.9,0,0,1,.588-22.9c0-1.543,1.794-3.469,1.827-3.469M-14.528-16.247h2.053v-3.792h3.448v-1.589h-3.448v-2.107h3.561v-1.583h-5.614ZM4.275-26.1H6.439L3.923-35.169H1.157L-1.451-26.1H.555l.576-2.027H3.756Zm-.9-3.563H1.489l.878-3.945H2.51Zm9.506,8.88c0,2.665,1.235,4.69,3.843,4.69s3.866-2.025,3.866-4.69-1.249-4.691-3.866-4.691-3.843,2.025-3.843,4.691m2.185,0c0-1.742.428-3.157,1.658-3.157S18.4-22.523,18.4-20.782s-.444,3.158-1.681,3.158-1.658-1.418-1.658-3.158M1.541,2.49a30.423,30.423,0,0,0,.238-3.936v-.278c0-2.323-.086-3.107-1.636-3.622-2.4-.792-3.374-3.465-2.85-6.793l-8.01-20.375a19.967,19.967,0,0,0-6.8,15.015A20.037,20.037,0,0,0,1.541,2.49M2.491-10.5c-3.187-.744-4.371-3.648-4.371-6.227L-8.894-33.943c-.458.316-.9.655-1.332,1.007C-8.684-29.28-1.759-12.848-1.75-12.826-.526-9.874,1.7-10.851,2.244-8.414a5.445,5.445,0,0,1,.138.848h.239a4.794,4.794,0,0,1,.138-.848c.538-2.437,2.762-1.459,3.989-4.411.009-.023,6.933-16.454,8.473-20.111-.429-.352-.872-.691-1.332-1.007L6.878-16.727c0,2.579-1.186,5.483-4.373,6.227Zm0-5.2A4.387,4.387,0,0,1-.768-19.069a7.694,7.694,0,0,1-.046-2.147L-6.961-35.131q-.742.4-1.451.865C-6.574-30.135-.955-17.518-.95-17.5c.889,1.872,2.449,1.909,2.988,3.026a3.6,3.6,0,0,1,.358,1.3h.2a3.705,3.705,0,0,1,.358-1.3c.541-1.117,2.1-1.154,2.988-3.026,0-.015,5.626-12.632,7.462-16.763-.467-.308-.953-.6-1.451-.865L5.817-21.216a7.4,7.4,0,0,1-.053,2.147A4.391,4.391,0,0,1,2.516-15.7Zm.084-2.364.095-.758c.388-1.762,1.666-1.542,2.555-3.273l.015-.026c.026-.065,4.375-9.395,6.19-13.29a19.886,19.886,0,0,0-8.926-2.1,19.906,19.906,0,0,0-8.928,2.1c1.815,3.895,6.162,13.224,6.2,13.29a.229.229,0,0,0,.012.026c.884,1.73,2.16,1.511,2.549,3.273l.093.758Zm19.941.563a19.99,19.99,0,0,0-6.794-15.015L7.7-12.139c.532,3.328-.455,6-2.849,6.793-1.55.515-1.636,1.3-1.636,3.622v.278A31.7,31.7,0,0,0,3.455,2.49,20.037,20.037,0,0,0,22.513-17.5m-33.7,5.911s.295.629.537,1.074.565.985.565.985l-.529.307s-.4-.667-.768-1.439c-.1.052-.734.381-.839.433.061.111.71,1.361.71,1.361l-.534.308s-.657-1.277-.713-1.385c-.115.056-1.481.76-1.481.76l-.325-.648,3.341-1.739Zm2.11,3.424.465.561-2.922,2.443-.474-.56,2.9-2.42ZM-6.369-5.6l.577.414-.749,4.03-.664-.383s.166-.821.187-.9c-.033-.026-.418-.257-.794-.522s-.75-.577-.785-.6l-.806.476-.568-.485L-6.408-5.58ZM-8.06-3.89c.069.058.317.258.573.441s.522.353.6.388c.037-.168.3-1.493.359-1.738-.216.129-1.376.818-1.53.909m4.1-.228a13.64,13.64,0,0,0,1.494.607,14.607,14.607,0,0,0,1.6.478l-.173.579a11.757,11.757,0,0,1-1.249-.322c-.045.127-1.049,3-1.049,3l-.69-.237s1-2.878,1.046-3A11.117,11.117,0,0,1-4.2-3.552Zm12.034.767a1.092,1.092,0,0,1,.53.694,1.307,1.307,0,0,1,.068.4c0,.532-.372.951-1.044,1.162l-.44.136c.038.12.44,1.411.44,1.411L6.957.626,5.826-3.044l1.013-.315a1.631,1.631,0,0,1,1.235.008M6.658-2.66c.033.112.314,1.009.347,1.118.139-.04.444-.138.444-.138A.756.756,0,0,0,7.9-2.022a.486.486,0,0,0,.057-.233.7.7,0,0,0-.033-.2.486.486,0,0,0-.243-.295.918.918,0,0,0-.656-.03l-.369.116m3.688-2.291,3.3,2.421-.587.413-.73-.553c-.038.02-.379.262-.747.48-.345.209-.72.395-.757.415.016.088.145.9.145.9l-.631.3-.555-4.05Zm.377,2.565c.1-.048.357-.188.611-.341.227-.138.408-.252.5-.325-.133-.1-1.166-.885-1.379-1.052.044.27.243,1.549.268,1.718m3.4-5.9L17-5.716l-.519.609s-2.7-.79-3.112-.9c.3.291,1.981,2.059,1.981,2.059l-.506.457L12.131-6.249l.637-.572s2.607.777,3.016.885c-.3-.288-2.1-1.836-2.1-1.836ZM15.437-10.2l3.337,1.935-.34.586L15.08-9.623Zm1.446-3.2.573.3-.057.068a1.639,1.639,0,0,0-.358.6.669.669,0,0,0-.009.507.365.365,0,0,0,.227.187c.255.086.475-.135.727-.393a1.37,1.37,0,0,1,1.493-.561c.717.243.96.88.664,1.749a2.742,2.742,0,0,1-.4.7l-.036.045-.592-.276.06-.069a2.216,2.216,0,0,0,.411-.659.6.6,0,0,0-.3-.809c-.317-.11-.556.137-.835.423-.338.356-.725.756-1.364.538a1.018,1.018,0,0,1-.61-.51,1.355,1.355,0,0,1-.015-1.049,2.453,2.453,0,0,1,.395-.74Z" transform="translate(20.001 40)"/>
      </g>
    </g>
    <g id="Group_3" data-name="Group 3" transform="translate(53.005 4.745)">
      <path id="Path_3" data-name="Path 3" d="M0,0H4.484V1.3H1.626V3.709H4.357v1.3H1.626V8.866H0Z"/>
    </g>
    <g id="Group_10" data-name="Group 10" clip-path="url(#clip-path)">
      <g id="Group_4" data-name="Group 4" transform="translate(58.137 6.967)">
        <path id="Path_4" data-name="Path 4" d="M.32,0C1.653,0,3.191.7,3.191,3.366,3.191,6.11,1.653,6.745.32,6.745S-2.563,6.11-2.563,3.366C-2.563.7-1.014,0,.32,0m0,5.627c1.016,0,1.245-1.169,1.245-2.261S1.336,1.118.32,1.118-.937,2.274-.937,3.366-.7,5.627.32,5.627" transform="translate(2.563)"/>
      </g>
      <g id="Group_5" data-name="Group 5" transform="translate(64.932 6.967)">
        <path id="Path_5" data-name="Path 5" d="M.32,0C1.653,0,3.191.7,3.191,3.366,3.191,6.11,1.653,6.745.32,6.745S-2.563,6.11-2.563,3.366C-2.563.7-1.014,0,.32,0m0,5.627c1.016,0,1.245-1.169,1.245-2.261S1.336,1.118.32,1.118-.937,2.274-.937,3.366-.7,5.627.32,5.627" transform="translate(2.563)"/>
      </g>
      <g id="Group_6" data-name="Group 6" transform="translate(71.726 4.084)">
        <path id="Path_6" data-name="Path 6" d="M.617,0V8.409A8.417,8.417,0,0,0,.667,9.528H-.805A8.632,8.632,0,0,1-.857,8.511H-.9a1.762,1.762,0,0,1-1.74,1.118c-1.626,0-2.3-1.549-2.3-3.366,0-2.134.851-3.38,2.261-3.38A1.757,1.757,0,0,1-.984,3.925h.026V0ZM-2.2,8.474c.928,0,1.245-1,1.245-2.237,0-1.27-.356-2.2-1.219-2.2S-3.359,4.89-3.359,6.2c0,1.512.241,2.275,1.155,2.275" transform="translate(4.934)"/>
      </g>
      <g id="Group_7" data-name="Group 7" transform="translate(81.632 6.968)">
        <path id="Path_7" data-name="Path 7" d="M.073.054a4.571,4.571,0,0,1,2.07-.483c2.033,0,2.5.991,2.5,2.629V5.059a8.024,8.024,0,0,0,.089,1.155H3.313a3.23,3.23,0,0,1-.09-.889H3.2a2.105,2.105,0,0,1-1.829.991A1.877,1.877,0,0,1-.587,4.4c0-1.779,1.448-2.223,3.442-2.223h.317V1.933A1.124,1.124,0,0,0,1.953.689a3.024,3.024,0,0,0-1.791.634Zm3.1,2.96H3.033c-1.347,0-2.147.279-2.147,1.232a.947.947,0,0,0,1,1c.939,0,1.283-.7,1.283-1.867Z" transform="translate(0.587 0.429)"/>
      </g>
      <g id="Group_8" data-name="Group 8" transform="translate(88.248 6.968)">
        <path id="Path_8" data-name="Path 8" d="M.006.131A8.906,8.906,0,0,0-.045-.949H1.429c.012.331.051.674.051,1h.026A1.906,1.906,0,0,1,3.244-1.05c1.487,0,1.932,1.106,1.932,2.427V5.593H3.6V1.669c0-1-.253-1.423-.9-1.423-.826,0-1.118.7-1.118,1.537v3.81H.006Z" transform="translate(0.045 1.05)"/>
      </g>
      <g id="Group_9" data-name="Group 9" transform="translate(94.687 4.084)">
        <path id="Path_9" data-name="Path 9" d="M.617,0V8.409A8.417,8.417,0,0,0,.667,9.528H-.806A8.954,8.954,0,0,1-.857,8.511H-.9a1.762,1.762,0,0,1-1.74,1.118c-1.626,0-2.3-1.549-2.3-3.366,0-2.134.851-3.38,2.261-3.38A1.757,1.757,0,0,1-.984,3.925h.026V0ZM-2.2,8.474c.928,0,1.245-1,1.245-2.237,0-1.27-.356-2.2-1.219-2.2S-3.359,4.89-3.359,6.2c0,1.512.241,2.275,1.155,2.275" transform="translate(4.934)"/>
      </g>
    </g>
    <g id="Group_11" data-name="Group 11" transform="translate(103.603 4.745)">
      <path id="Path_11" data-name="Path 11" d="M.59.748H-2.459l-.635,2.134H-4.72l2.972-8.866H.031L2.889,2.882H1.212ZM.247-.5-.871-4.637H-.9L-2.116-.5Z" transform="translate(4.72 5.984)"/>
    </g>
    <g id="Group_14" data-name="Group 14" clip-path="url(#clip-path)">
      <g id="Group_12" data-name="Group 12" transform="translate(111.794 6.967)">
        <path id="Path_12" data-name="Path 12" d="M.042.851a4.147,4.147,0,0,0,1.93.559C3.459,1.41,3.7.381,3.7-.647V-1.27H3.675a1.791,1.791,0,0,1-1.727,1.1c-.915,0-2.287-.61-2.287-3.252,0-1.8.648-3.392,2.362-3.392A1.872,1.872,0,0,1,3.752-5.691H3.8c0-.343.038-.673.051-1.016H5.276c-.026.343-.051.685-.051,1.028V-.851c0,2.045-.622,3.507-3.024,3.507A6.592,6.592,0,0,1-.047,2.248ZM2.316-1.321c.991,0,1.385-.711,1.385-2.2,0-1.371-.521-2.109-1.27-2.1-.826.012-1.143.774-1.143,2.108,0,1.537.5,2.185,1.028,2.185" transform="translate(0.339 6.809)"/>
      </g>
      <g id="Group_13" data-name="Group 13" transform="translate(118.767 6.968)">
        <path id="Path_13" data-name="Path 13" d="M.006.131A8.906,8.906,0,0,0-.045-.949H1.378c.012.394.051.8.051,1.195h.025a1.826,1.826,0,0,1,1.664-1.3,1.723,1.723,0,0,1,.268.038V.462A1.638,1.638,0,0,0,2.94.4C2.292.4,1.581.792,1.581,2.011V5.593H.006Z" transform="translate(0.045 1.05)"/>
      </g>
    </g>
    <path id="Path_15" data-name="Path 15" d="M109.634-36.189h1.626v1.549h-1.626Zm.026,2.782h1.575v6.542H109.66Z" transform="translate(13.704 40.476)"/>
    <g id="Group_17" data-name="Group 17" clip-path="url(#clip-path)">
      <g id="Group_15" data-name="Group 15" transform="translate(126.31 6.967)">
        <path id="Path_16" data-name="Path 16" d="M.514.72A4.484,4.484,0,0,1-1.035.987C-3.2.987-4.11-.525-4.11-2.38s.965-3.379,3.164-3.379a4.288,4.288,0,0,1,1.371.268L.336-4.247a2.528,2.528,0,0,0-1.1-.317c-1.195,0-1.716.8-1.716,2.2,0,1.219.585,2.16,1.791,2.16A2.515,2.515,0,0,0,.425-.525Z" transform="translate(4.11 5.759)"/>
      </g>
      <g id="Group_16" data-name="Group 16" transform="translate(131.873 7.07)">
        <path id="Path_17" data-name="Path 17" d="M.575.607a8.906,8.906,0,0,0,.051,1.08H-.849C-.861,1.356-.9,1.013-.9.682L-.937.67l.012.012A1.9,1.9,0,0,1-2.664,1.788C-4.15,1.788-4.6.682-4.6-.639V-4.855h1.575V-.931c0,1,.28,1.423.941,1.423C-1.242.492-1-.269-1-1.108V-4.855H.575Z" transform="translate(4.596 4.855)"/>
      </g>
    </g>
    <path id="Path_19" data-name="Path 19" d="M123.192-36.37h1.575v9.528h-1.575Z" transform="translate(15.399 40.454)"/>
    <g id="Group_27" data-name="Group 27" clip-path="url(#clip-path)">
      <g id="Group_18" data-name="Group 18" transform="translate(141.258 5.24)">
        <path id="Path_20" data-name="Path 20" d="M.116.054,1.691-.429V1.4H3V2.556H1.691V5.947c0,.7.254.9.711.9A1.247,1.247,0,0,0,3,6.71V7.827a2.422,2.422,0,0,1-1.054.216C.776,8.043.116,7.51.116,6.139V2.556H-.926V1.4H.116Z" transform="translate(0.926 0.429)"/>
      </g>
      <g id="Group_19" data-name="Group 19" transform="translate(146.16 7.07)">
        <path id="Path_21" data-name="Path 21" d="M.575.607a8.906,8.906,0,0,0,.051,1.08H-.849C-.861,1.356-.9,1.013-.9.682L-.937.67l.012.012A1.9,1.9,0,0,1-2.664,1.788C-4.15,1.788-4.6.682-4.6-.639V-4.855h1.575V-.931c0,1,.28,1.423.941,1.423C-1.242.492-1-.269-1-1.108V-4.855H.575Z" transform="translate(4.596 4.855)"/>
      </g>
      <g id="Group_20" data-name="Group 20" transform="translate(152.726 6.968)">
        <path id="Path_22" data-name="Path 22" d="M.006.131A8.906,8.906,0,0,0-.045-.949H1.377c.014.394.051.8.051,1.195h.026a1.826,1.826,0,0,1,1.665-1.3,1.728,1.728,0,0,1,.267.038V.462A1.631,1.631,0,0,0,2.94.4C2.292.4,1.581.792,1.581,2.011V5.593H.006Z" transform="translate(0.045 1.05)"/>
      </g>
      <g id="Group_21" data-name="Group 21" transform="translate(156.866 6.968)">
        <path id="Path_23" data-name="Path 23" d="M.553.7a4.871,4.871,0,0,1-1.956.42c-2.108,0-3.023-1.512-3.023-3.278,0-1.955,1.029-3.467,2.693-3.467C-.323-5.623.884-4.8.884-2.13v.3H-2.9c0,1.118.444,1.791,1.664,1.791A2.6,2.6,0,0,0,.477-.543ZM-.64-2.816c0-1.155-.381-1.74-1.092-1.74-.826,0-1.169.877-1.169,1.74Z" transform="translate(4.426 5.623)"/>
      </g>
      <g id="Group_22" data-name="Group 22" transform="translate(52.65 18.905)">
        <path id="Path_24" data-name="Path 24" d="M.392,0C2.234,0,3.924,1.373,3.924,4.561S2.234,9.12.392,9.12s-3.531-1.371-3.531-4.56S-1.449,0,.392,0m0,7.876c1.028,0,1.854-.876,1.854-3.315S1.421,1.245.392,1.245s-1.855.876-1.855,3.315S-.637,7.876.392,7.876" transform="translate(3.139)"/>
      </g>
      <g id="Group_23" data-name="Group 23" transform="translate(60.981 21.255)">
        <path id="Path_25" data-name="Path 25" d="M.006.131A8.906,8.906,0,0,0-.045-.949H1.378c.012.394.051.8.051,1.195h.025a1.826,1.826,0,0,1,1.664-1.3,1.743,1.743,0,0,1,.268.038V.462A1.638,1.638,0,0,0,2.94.4C2.293.4,1.581.792,1.581,2.011V5.593H.006Z" transform="translate(0.045 1.05)"/>
      </g>
      <g id="Group_24" data-name="Group 24" transform="translate(65.121 21.255)">
        <path id="Path_26" data-name="Path 26" d="M.042.851a4.147,4.147,0,0,0,1.93.559C3.459,1.41,3.7.381,3.7-.647V-1.27H3.675a1.791,1.791,0,0,1-1.727,1.1c-.915,0-2.287-.61-2.287-3.252,0-1.8.648-3.392,2.362-3.392A1.872,1.872,0,0,1,3.752-5.691H3.8c0-.343.038-.673.051-1.016H5.276c-.026.343-.051.685-.051,1.029V-.851c0,2.045-.622,3.507-3.024,3.507A6.592,6.592,0,0,1-.047,2.248ZM2.316-1.321c.991,0,1.385-.711,1.385-2.2,0-1.371-.521-2.109-1.27-2.1-.826.012-1.143.774-1.143,2.108,0,1.537.5,2.185,1.028,2.185" transform="translate(0.339 6.809)"/>
      </g>
      <g id="Group_25" data-name="Group 25" transform="translate(71.75 21.255)">
        <path id="Path_27" data-name="Path 27" d="M.073.054a4.556,4.556,0,0,1,2.07-.483c2.033,0,2.5.991,2.5,2.629V5.059a8.024,8.024,0,0,0,.089,1.155H3.313a3.23,3.23,0,0,1-.09-.889H3.2a2.105,2.105,0,0,1-1.829.991A1.878,1.878,0,0,1-.587,4.4c0-1.779,1.448-2.223,3.442-2.223h.317V1.933A1.124,1.124,0,0,0,1.953.689a3.017,3.017,0,0,0-1.791.634Zm3.1,2.96H3.033c-1.347,0-2.147.279-2.147,1.232a.947.947,0,0,0,1,1c.939,0,1.283-.7,1.283-1.867Z" transform="translate(0.587 0.429)"/>
      </g>
      <g id="Group_26" data-name="Group 26" transform="translate(78.367 21.255)">
        <path id="Path_28" data-name="Path 28" d="M.006.131A8.906,8.906,0,0,0-.045-.949H1.429c.012.331.051.674.051,1h.026a1.907,1.907,0,0,1,1.739-1.1c1.487,0,1.932,1.1,1.932,2.427V5.593H3.6V1.668c0-1-.253-1.422-.9-1.422-.826,0-1.118.7-1.118,1.537v3.81H.006Z" transform="translate(0.045 1.05)"/>
      </g>
    </g>
    <path id="Path_30" data-name="Path 30" d="M75.654-23.489H77.28v1.549H75.654Zm.025,2.782h1.575v6.542H75.679Z" transform="translate(9.457 42.064)"/>
    <g id="Group_28" data-name="Group 28" transform="translate(87.904 21.356)">
      <path id="Path_31" data-name="Path 31" d="M0,.576,2.794-3.412H.089V-4.607H4.37V-3.26l-2.744,4H4.458V1.935H0Z" transform="translate(0 4.607)"/>
    </g>
    <g id="Group_31" data-name="Group 31" clip-path="url(#clip-path)">
      <g id="Group_29" data-name="Group 29" transform="translate(93.06 21.255)">
        <path id="Path_32" data-name="Path 32" d="M.073.054a4.556,4.556,0,0,1,2.07-.483c2.033,0,2.5.991,2.5,2.629V5.059a8.024,8.024,0,0,0,.089,1.155H3.313a3.23,3.23,0,0,1-.09-.889H3.2a2.105,2.105,0,0,1-1.829.991A1.878,1.878,0,0,1-.587,4.4c0-1.779,1.448-2.223,3.442-2.223h.317V1.933A1.124,1.124,0,0,0,1.953.689a3.017,3.017,0,0,0-1.791.634Zm3.1,2.96H3.033c-1.347,0-2.147.279-2.147,1.232a.947.947,0,0,0,1,1c.939,0,1.283-.7,1.283-1.867Z" transform="translate(0.587 0.429)"/>
      </g>
      <g id="Group_30" data-name="Group 30" transform="translate(99.27 19.527)">
        <path id="Path_33" data-name="Path 33" d="M.116.054,1.691-.429V1.4H3V2.556H1.691V5.947c0,.7.254.9.711.9A1.247,1.247,0,0,0,3,6.71V7.827a2.422,2.422,0,0,1-1.054.216C.776,8.043.116,7.51.116,6.139V2.556H-.926V1.4H.116Z" transform="translate(0.926 0.429)"/>
      </g>
    </g>
    <path id="Path_35" data-name="Path 35" d="M92.711-23.489h1.626v1.549H92.711Zm.026,2.782h1.575v6.542H92.737Z" transform="translate(11.589 42.064)"/>
    <g id="Group_41" data-name="Group 41" clip-path="url(#clip-path)">
      <g id="Group_32" data-name="Group 32" transform="translate(107.272 21.255)">
        <path id="Path_36" data-name="Path 36" d="M.32,0C1.653,0,3.191.7,3.191,3.366,3.191,6.11,1.653,6.745.32,6.745S-2.563,6.11-2.563,3.366C-2.563.7-1.014,0,.32,0m0,5.627c1.016,0,1.245-1.169,1.245-2.261S1.336,1.118.32,1.118-.937,2.274-.937,3.366-.7,5.627.32,5.627" transform="translate(2.563)"/>
      </g>
      <g id="Group_33" data-name="Group 33" transform="translate(114.193 21.255)">
        <path id="Path_37" data-name="Path 37" d="M.006.131A8.906,8.906,0,0,0-.045-.949H1.429c.012.331.051.674.051,1h.026a1.907,1.907,0,0,1,1.739-1.1c1.487,0,1.932,1.1,1.932,2.427V5.593H3.6V1.668c0-1-.253-1.422-.9-1.422-.826,0-1.118.7-1.118,1.537v3.81H.006Z" transform="translate(0.045 1.05)"/>
      </g>
      <g id="Group_34" data-name="Group 34" transform="translate(123.909 21.255)">
        <path id="Path_38" data-name="Path 38" d="M.32,0C1.653,0,3.191.7,3.191,3.366,3.191,6.11,1.653,6.745.32,6.745S-2.563,6.11-2.563,3.366C-2.563.7-1.014,0,.32,0m0,5.627c1.016,0,1.245-1.169,1.245-2.261S1.336,1.118.32,1.118-.937,2.274-.937,3.366-.7,5.627.32,5.627" transform="translate(2.563)"/>
      </g>
      <g id="Group_35" data-name="Group 35" transform="translate(130.296 18.22)">
        <path id="Path_39" data-name="Path 39" d="M.121.477H-.971V-.678H.121V-2.013A1.656,1.656,0,0,1,2-3.816a5.57,5.57,0,0,1,1.131.152L3.069-2.521a2.376,2.376,0,0,0-.623-.1.732.732,0,0,0-.749.813V-.678H2.89V.477H1.7V5.864H.121Z" transform="translate(0.971 3.816)"/>
      </g>
      <g id="Group_36" data-name="Group 36" transform="translate(137.903 19.527)">
        <path id="Path_40" data-name="Path 40" d="M.116.054,1.691-.429V1.4H3V2.556H1.691V5.947c0,.7.254.9.711.9A1.247,1.247,0,0,0,3,6.71V7.827a2.422,2.422,0,0,1-1.054.216C.776,8.043.116,7.51.116,6.139V2.556H-.926V1.4H.116Z" transform="translate(0.926 0.429)"/>
      </g>
      <g id="Group_37" data-name="Group 37" transform="translate(142.805 18.371)">
        <path id="Path_41" data-name="Path 41" d="M0,0H1.575V3.824h.038a1.773,1.773,0,0,1,1.626-.941c1.487,0,1.932,1.106,1.932,2.427V9.528H3.594V5.6c0-1-.253-1.423-.9-1.423-.826,0-1.118.7-1.118,1.537V9.528H0Z"/>
      </g>
      <g id="Group_38" data-name="Group 38" transform="translate(149.194 21.255)">
        <path id="Path_42" data-name="Path 42" d="M.553.7a4.869,4.869,0,0,1-1.955.42c-2.109,0-3.024-1.512-3.024-3.278,0-1.955,1.029-3.467,2.693-3.467C-.323-5.623.884-4.8.884-2.13v.3H-2.9c0,1.118.444,1.791,1.664,1.791A2.6,2.6,0,0,0,.477-.543ZM-.64-2.816c0-1.155-.381-1.74-1.092-1.74-.826,0-1.169.877-1.169,1.74Z" transform="translate(4.426 5.623)"/>
      </g>
      <g id="Group_39" data-name="Group 39" transform="translate(52.929 33.32)">
        <path id="Path_43" data-name="Path 43" d="M.181,0V5.742c0,1.473.444,1.956,1.4,1.956.927,0,1.385-.484,1.385-1.956V0H4.588V5.742c0,2.337-1.347,3.251-3.011,3.251s-3.023-.915-3.023-3.251V0Z" transform="translate(1.445)"/>
      </g>
      <g id="Group_40" data-name="Group 40" transform="translate(60.46 35.543)">
        <path id="Path_44" data-name="Path 44" d="M.006.131A8.906,8.906,0,0,0-.045-.949H1.429c.012.331.051.674.051,1h.026A1.906,1.906,0,0,1,3.244-1.05c1.486,0,1.932,1.106,1.932,2.427V5.593H3.6V1.669c0-1-.253-1.423-.9-1.423-.826,0-1.118.7-1.118,1.537v3.81H.006Z" transform="translate(0.045 1.05)"/>
      </g>
    </g>
    <path id="Path_46" data-name="Path 46" d="M59.737-10.789h1.626V-9.24H59.737Zm.025,2.782h1.575v6.542H59.762Z" transform="translate(7.467 43.651)"/>
    <g id="Group_45" data-name="Group 45" clip-path="url(#clip-path)">
      <g id="Group_42" data-name="Group 42" transform="translate(69.896 33.815)">
        <path id="Path_47" data-name="Path 47" d="M.116.054,1.691-.429V1.4H3V2.556H1.691V5.947c0,.7.254.9.711.9A1.247,1.247,0,0,0,3,6.71V7.827a2.422,2.422,0,0,1-1.054.216C.776,8.043.116,7.51.116,6.139V2.556H-.926V1.4H.116Z" transform="translate(0.926 0.429)"/>
      </g>
      <g id="Group_43" data-name="Group 43" transform="translate(74.62 35.543)">
        <path id="Path_48" data-name="Path 48" d="M.553.7a4.876,4.876,0,0,1-1.956.42c-2.108,0-3.023-1.512-3.023-3.278,0-1.955,1.028-3.467,2.693-3.467C-.323-5.623.884-4.8.884-2.13v.3H-2.9c0,1.118.444,1.791,1.664,1.791A2.6,2.6,0,0,0,.477-.543ZM-.64-2.816c0-1.155-.381-1.74-1.092-1.74-.826,0-1.169.877-1.169,1.74Z" transform="translate(4.426 5.623)"/>
      </g>
      <g id="Group_44" data-name="Group 44" transform="translate(80.945 32.659)">
        <path id="Path_49" data-name="Path 49" d="M.617,0V8.409A8.417,8.417,0,0,0,.667,9.528H-.805A8.632,8.632,0,0,1-.857,8.511H-.9a1.762,1.762,0,0,1-1.74,1.118c-1.626,0-2.3-1.549-2.3-3.366,0-2.134.851-3.38,2.261-3.38A1.757,1.757,0,0,1-.984,3.925h.026V0ZM-2.2,8.474c.928,0,1.245-1,1.245-2.237,0-1.27-.356-2.2-1.219-2.2S-3.359,4.89-3.359,6.2c0,1.512.241,2.275,1.155,2.275" transform="translate(4.934)"/>
      </g>
    </g>
    <g id="Group_46" data-name="Group 46" transform="translate(91.41 33.32)">
      <path id="Path_51" data-name="Path 51" d="M0,0H1.93L4.878,6.962H4.9V0H6.377V8.866H4.434L1.5,1.956H1.474v6.91H0Z"/>
    </g>
    <g id="Group_49" data-name="Group 49" clip-path="url(#clip-path)">
      <g id="Group_47" data-name="Group 47" transform="translate(99.055 35.543)">
        <path id="Path_52" data-name="Path 52" d="M.073.054A4.557,4.557,0,0,1,2.145-.429c2.032,0,2.5.991,2.5,2.629V5.059a8.024,8.024,0,0,0,.089,1.155H3.312a3.278,3.278,0,0,1-.088-.889H3.2a2.105,2.105,0,0,1-1.829.991A1.878,1.878,0,0,1-.587,4.4c0-1.778,1.448-2.222,3.442-2.222h.317V1.933A1.124,1.124,0,0,0,1.953.689a3.017,3.017,0,0,0-1.791.634Zm3.1,2.96H3.033c-1.347,0-2.147.279-2.147,1.232a.947.947,0,0,0,1,1c.939,0,1.283-.7,1.283-1.867Z" transform="translate(0.587 0.429)"/>
      </g>
      <g id="Group_48" data-name="Group 48" transform="translate(105.265 33.815)">
        <path id="Path_53" data-name="Path 53" d="M.116.054,1.691-.429V1.4H3V2.556H1.691V5.947c0,.7.254.9.711.9A1.247,1.247,0,0,0,3,6.71V7.827a2.422,2.422,0,0,1-1.054.216C.776,8.043.116,7.51.116,6.139V2.556H-.926V1.4H.116Z" transform="translate(0.926 0.429)"/>
      </g>
    </g>
    <path id="Path_55" data-name="Path 55" d="M98.039-10.789h1.626V-9.24H98.039Zm.026,2.782H99.64v6.542H98.065Z" transform="translate(12.255 43.651)"/>
    <g id="Group_53" data-name="Group 53" clip-path="url(#clip-path)">
      <g id="Group_50" data-name="Group 50" transform="translate(113.266 35.543)">
        <path id="Path_56" data-name="Path 56" d="M.32,0C1.653,0,3.191.7,3.191,3.366,3.191,6.11,1.653,6.745.32,6.745S-2.563,6.11-2.563,3.366C-2.563.7-1.014,0,.32,0m0,5.627c1.016,0,1.245-1.169,1.245-2.261S1.336,1.118.32,1.118-.937,2.274-.937,3.366-.7,5.627.32,5.627" transform="translate(2.563)"/>
      </g>
      <g id="Group_51" data-name="Group 51" transform="translate(120.187 35.543)">
        <path id="Path_57" data-name="Path 57" d="M.006.131A8.906,8.906,0,0,0-.045-.949H1.429c.012.331.051.674.051,1h.026A1.906,1.906,0,0,1,3.244-1.05c1.487,0,1.932,1.106,1.932,2.427V5.593H3.6V1.669c0-1-.253-1.423-.9-1.423-.826,0-1.118.7-1.118,1.537v3.81H.006Z" transform="translate(0.045 1.05)"/>
      </g>
      <g id="Group_52" data-name="Group 52" transform="translate(126.55 35.542)">
        <path id="Path_58" data-name="Path 58" d="M.009.569A4.215,4.215,0,0,0,1.648,1C2.219,1,2.663.861,2.663.353c0-.254-.127-.5-.7-.826L1.317-.854C.657-1.248-.068-1.666-.068-2.7A2.084,2.084,0,0,1,2.193-4.551a5.246,5.246,0,0,1,1.639.268l-.089,1.22a3.6,3.6,0,0,0-1.385-.292c-.636,0-.9.242-.9.636,0,.356.279.546.737.838l.775.5C3.781-.867,4.188-.5,4.188.264c0,1.207-1.017,1.931-2.439,1.931A5.3,5.3,0,0,1-.068,1.877Z" transform="translate(0.068 4.551)"/>
      </g>
    </g>
  </g>
</svg>
