<svg xmlns="http://www.w3.org/2000/svg" xmlns:xlink="http://www.w3.org/1999/xlink" width="99.934" height="81.815" viewBox="0 0 99.934 81.815">
  <defs>
    <clipPath id="clip-path">
      <path id="Path_61" data-name="Path 61" d="M0,37.807H99.934V-44.008H0Z" transform="translate(0 44.008)" fill="#2b69ae"/>
    </clipPath>
  </defs>
  <g id="Group_58" data-name="Group 58" transform="translate(99.934 37.807) rotate(180)">
    <g id="Group_56" data-name="Group 56" transform="translate(0 -44.008)" clip-path="url(#clip-path)">
      <g id="Group_55" data-name="Group 55" transform="translate(0 0.001)">
        <path id="Path_60" data-name="Path 60" d="M0,24.4Q0,37.6,6.838,45.506t17.9,7.907q9.392,0,14.744-5.886a21.008,21.008,0,0,0,5.352-14.685,19.534,19.534,0,0,0-4.876-13.38A15.906,15.906,0,0,0,27.47,13.933a58.7,58.7,0,0,0-5.945.595,6.259,6.259,0,0,1-3.092-1.071q-1.785-.951-1.785-4.044,0-9.035,9.632-18.907A136.7,136.7,0,0,1,43.166-23.05L40.313-28.4Q17.482-16.629,8.74-2.417T0,24.4m55.1,0q0,13.2,6.9,21.108a22.311,22.311,0,0,0,17.6,7.907q9.392,0,14.865-5.648t5.469-14.923A19.341,19.341,0,0,0,95,19.4a16.037,16.037,0,0,0-12.428-5.469,58.7,58.7,0,0,0-5.945.595,4.422,4.422,0,0,1-3.568-1.547A6.03,6.03,0,0,1,71.75,8.94q0-8.681,10.108-18.79A125.934,125.934,0,0,1,98.27-23.05L95.414-28.4Q73.654-17.223,64.378-3.072T55.1,24.4" transform="translate(0 28.4)" fill="#2b69ae"/>
      </g>
    </g>
  </g>
</svg>
