<svg xmlns="http://www.w3.org/2000/svg" xmlns:xlink="http://www.w3.org/1999/xlink" width="300" height="300" viewBox="0 0 300 300"><defs><clipPath id="a"><rect width="300" height="300" fill="none"/></clipPath></defs><g transform="translate(0 0)" clip-path="url(#a)"><path d="M300,150A150,150,0,1,1,150,0,150,150,0,0,1,300,150" transform="translate(0 0.002)" fill="#d8363b"/><path d="M44.416,232.551A133.032,133.032,0,1,0,232.551,44.414,133.118,133.118,0,0,0,82.659,17.707c-4.573,2.117-1.3,9.192,3.278,7.072a125.257,125.257,0,0,1,177.784,113.7A125.237,125.237,0,0,1,49.929,227.039,125.248,125.248,0,0,1,68.7,34.478c4.184-2.811-.168-9.279-4.352-6.465A133.044,133.044,0,0,0,44.416,232.551" transform="translate(11.517 11.519)" fill="#fff"/><path d="M106.823,167.745a3.875,3.875,0,0,1-2.4-.828c-2.45-1.921-60.051-47.13-71.176-61.847C14.287,79.993,20.509,61.329,25.9,52.439,35.348,36.86,56.172,27.9,75.421,31.145a41.227,41.227,0,0,1,31.4,24.024,41.217,41.217,0,0,1,31.4-24.024c19.243-3.243,40.07,5.715,49.518,21.294,5.394,8.89,11.614,27.554-7.343,52.63-4.2,5.55-15.358,15.971-33.169,30.972a3.9,3.9,0,0,1-5.021-5.967c21.634-18.21,29.325-26.2,31.971-29.7,11.99-15.866,14.44-31.451,6.9-43.89-7.86-12.958-25.338-20.382-41.561-17.649-8.737,1.469-24.108,7.259-28.883,29.5a3.9,3.9,0,0,1-7.623,0C98.234,46.093,82.864,40.3,74.126,38.834,57.9,36.1,40.425,43.525,32.568,56.483c-7.545,12.439-5.1,28.024,6.895,43.89,9.295,12.3,56.154,49.654,67.36,58.513,3.477-2.749,10.387-8.243,18.483-14.832a3.9,3.9,0,1,1,4.924,6.042c-11.685,9.516-20.911,16.75-21.008,16.821a3.872,3.872,0,0,1-2.4.828" transform="translate(43.177 64.407)" fill="#fff"/></g></svg>