<svg xmlns="http://www.w3.org/2000/svg" xmlns:xlink="http://www.w3.org/1999/xlink" width="300" height="300" viewBox="0 0 300 300"><defs><clipPath id="a"><rect width="300" height="300" fill="none"/></clipPath></defs><g transform="translate(0 0)" clip-path="url(#a)"><path d="M300,150A150,150,0,1,1,150,0,150,150,0,0,1,300,150" transform="translate(0 0)" fill="#f18825"/><path d="M242.1,221.938A133.033,133.033,0,0,0,34.885,55.052,133.116,133.116,0,0,0,24.4,206.944c2.6,4.317,9.276.305,6.68-4.015A125.248,125.248,0,0,1,217.046,40.957,125.241,125.241,0,1,1,42.571,219.028c-3.243-3.854-9.211,1.161-5.964,5.018a133.043,133.043,0,0,0,205.5-2.107" transform="translate(11.507 11.511)" fill="#fff"/><path d="M40.553,82.809a3.893,3.893,0,0,1-3.287-5.98c6.555-10.35,6.138-12.669,1-16.4a15.434,15.434,0,0,1-6.471-10.4C31,44.482,33.08,38.154,37.658,32.2a3.9,3.9,0,0,1,6.179,4.75c-3.24,4.212-4.818,8.572-4.327,11.965a7.615,7.615,0,0,0,3.334,5.211c12.348,8.968,5.79,19.315,1,26.872a3.889,3.889,0,0,1-3.293,1.812" transform="translate(66.827 64.819)" fill="#fff"/><path d="M67.787,82.81a3.9,3.9,0,0,1-3.29-5.98c6.555-10.353,6.138-12.672,1.005-16.4a15.434,15.434,0,0,1-6.471-10.4c-.8-5.544,1.279-11.875,5.855-17.83a3.9,3.9,0,0,1,6.182,4.75c-3.237,4.212-4.815,8.573-4.327,11.965a7.625,7.625,0,0,0,3.334,5.211C82.423,63.091,75.868,73.441,71.08,81a3.893,3.893,0,0,1-3.293,1.812" transform="translate(124.363 64.818)" fill="#fff"/><path d="M53.551,78.2a3.893,3.893,0,0,1-3.287-5.98c6.555-10.353,6.135-12.669,1-16.4a15.427,15.427,0,0,1-6.471-10.4c-.8-5.544,1.282-11.875,5.858-17.83a3.9,3.9,0,0,1,6.179,4.753c-3.237,4.208-4.815,8.569-4.324,11.962a7.608,7.608,0,0,0,3.334,5.211c12.345,8.968,5.79,19.315,1,26.872A3.889,3.889,0,0,1,53.551,78.2" transform="translate(94.286 55.081)" fill="#fff"/><path d="M225.457,53.116a3.891,3.891,0,0,0-3.334-1.905H18.037a3.875,3.875,0,0,0-3.393,5.746c3.7,6.748,16.921,18.284,29.468,25.1,7.359,3.994,21.842,10.77,36.992,11.8V96.5a10.266,10.266,0,0,0,10.253,10.26H148.8A10.268,10.268,0,0,0,159.056,96.5v-2.64c15.147-1.034,29.633-7.81,36.995-11.8,12.541-6.814,25.755-18.35,29.465-25.1a3.886,3.886,0,0,0-.059-3.841M88.852,93.993h62.457V96.5a2.513,2.513,0,0,1-2.509,2.509H91.357A2.511,2.511,0,0,1,88.852,96.5ZM214.087,58.962c-10.814,10.549-39.018,27.28-58.9,27.28H84.976c-19.881,0-48.092-16.731-58.9-27.28Z" transform="translate(29.921 108.196)" fill="#fff"/><path d="M55.7,65.355H72.311a45.093,45.093,0,0,0,8.98-.974,3.363,3.363,0,0,0-.672-6.658,3.554,3.554,0,0,0-.679.069,38.107,38.107,0,0,1-7.629.837H55.7a3.363,3.363,0,0,0,0,6.727" transform="translate(110.575 121.954)" fill="#fff"/><path d="M68.659,63.757a3.312,3.312,0,0,0,1.248-.243c1-.4,2.014-.831,3.013-1.276a3.373,3.373,0,0,0,1.7-4.442,3.358,3.358,0,0,0-4.439-1.7c-.928.414-1.861.809-2.776,1.177a3.363,3.363,0,0,0,1.251,6.484" transform="translate(137.952 117.9)" fill="#fff"/></g></svg>