<svg xmlns="http://www.w3.org/2000/svg" xmlns:xlink="http://www.w3.org/1999/xlink" width="32.193" height="32.193" viewBox="0 0 32.193 32.193"><defs><filter id="a" x="0" y="0" width="32.193" height="32.193" filterUnits="userSpaceOnUse"><feOffset dx="1" dy="1" input="SourceAlpha"/><feGaussianBlur stdDeviation="0.5" result="b"/><feFlood flood-color="#fff" flood-opacity="0.502"/><feComposite operator="in" in2="b"/><feComposite in="SourceGraphic"/></filter><filter id="c" x="7.763" y="7.763" width="16.667" height="16.667" filterUnits="userSpaceOnUse"><feOffset dx="1" dy="1" input="SourceAlpha"/><feGaussianBlur stdDeviation="0.5" result="d"/><feFlood flood-color="#fff" flood-opacity="0.502"/><feComposite operator="in" in2="d"/><feComposite in="SourceGraphic"/></filter></defs><g transform="translate(-1473.193 -1093.193)"><g transform="matrix(1, 0, 0, 1, 1473.19, 1093.19)" filter="url(#a)"><path d="M14.6,2.246A12.351,12.351,0,1,0,26.948,14.6,12.365,12.365,0,0,0,14.6,2.246M14.6,0A14.6,14.6,0,1,1,0,14.6,14.6,14.6,0,0,1,14.6,0Z" transform="translate(0.5 0.5)" fill="#717171"/></g><g transform="matrix(1, 0, 0, 1, 1473.19, 1093.19)" filter="url(#c)"><path d="M-2412.979,26.788l-4.773-4.773-4.773,4.773a1,1,0,0,1-1.414,0l-.354-.354a1,1,0,0,1,0-1.414l4.773-4.773-4.773-4.773a1,1,0,0,1,0-1.414l.354-.354a1,1,0,0,1,1.414,0l4.773,4.773,4.773-4.773a1,1,0,0,1,1.414,0l.354.354a1,1,0,0,1,0,1.414l-4.773,4.773,4.773,4.773a1,1,0,0,1,0,1.414l-.354.354a1,1,0,0,1-.707.293A1,1,0,0,1-2412.979,26.788Z" transform="translate(2432.85 -5.15)" fill="#717171"/></g></g></svg>