<svg xmlns="http://www.w3.org/2000/svg" width="40" height="40" viewBox="0 0 40 40">
  <g id="Group_73" data-name="Group 73" transform="translate(-1549 -918)">
    <g id="Group_67" data-name="Group 67" transform="translate(1389 909)">
      <g id="Path_10785" data-name="Path 10785" transform="translate(160 9)" fill="none">
        <path d="M20,0A20,20,0,1,1,0,20,20,20,0,0,1,20,0Z" stroke="none"/>
        <path d="M 20 2 C 15.19202041625977 2 10.67182922363281 3.872329711914062 7.272079467773438 7.272079467773438 C 3.872329711914062 10.67182922363281 2 15.19202041625977 2 20 C 2 24.80797958374023 3.872329711914062 29.32817077636719 7.272079467773438 32.72792053222656 C 10.67182922363281 36.12767028808594 15.19202041625977 38 20 38 C 24.80797958374023 38 29.32817077636719 36.12767028808594 32.72792053222656 32.72792053222656 C 36.12767028808594 29.32817077636719 38 24.80797958374023 38 20 C 38 15.19202041625977 36.12767028808594 10.67182922363281 32.72792053222656 7.272079467773438 C 29.32817077636719 3.872329711914062 24.80797958374023 2 20 2 M 20 0 C 31.04570007324219 0 40 8.954299926757812 40 20 C 40 31.04570007324219 31.04570007324219 40 20 40 C 8.954299926757812 40 0 31.04570007324219 0 20 C 0 8.954299926757812 8.954299926757812 0 20 0 Z" stroke="none" fill="#333"/>
      </g>
    </g>
    <path id="Path_67" data-name="Path 67" d="M387.086,159.039h4.632v-11.6h3.232l.345-3.884h-3.577v-2.212c0-.916.184-1.278,1.07-1.278H395.3v-4.031h-3.208c-3.447,0-5,1.518-5,4.424v3.1h-2.41v3.933h2.41Z" transform="translate(1179.014 790.464)" fill="#333"/>
  </g>
</svg>
