<svg xmlns="http://www.w3.org/2000/svg" xmlns:xlink="http://www.w3.org/1999/xlink" width="625.32" height="140.274" viewBox="0 0 625.32 140.274"><defs><clipPath id="a"><rect width="140.274" height="140.274" fill="none"/></clipPath></defs><g transform="translate(-1170 -1192.319)"><g transform="translate(1170 1192.319)"><g transform="translate(0 0)" clip-path="url(#a)"><path d="M140.274,70.137A70.137,70.137,0,1,1,70.138,0a70.137,70.137,0,0,1,70.136,70.137" transform="translate(0 0)" fill="#13a6aa"/><path d="M23.67,23.67a62.2,62.2,0,1,0,87.968,87.968,62.238,62.238,0,0,0,12.489-70.085,1.823,1.823,0,0,0-3.308,1.53,58.564,58.564,0,0,1-94.571,65.979,58.56,58.56,0,1,1,90.036-74.039,1.823,1.823,0,0,0,3.024-2.033A62.208,62.208,0,0,0,23.67,23.67" transform="translate(2.483 2.483)" fill="#fff"/><path d="M106.531,76.378H58.143a46.664,46.664,0,0,1,2.506-15.113,46.452,46.452,0,0,0,2.634-14.7,12.929,12.929,0,0,0,2.45-1.062c1.824-1.042,5.638-5.1,6.637-10.168A12.541,12.541,0,0,0,69.787,24.96c-7.008-8.993-18.232-10.926-18.71-11l-3.221-.525,1.246,3.02a17.509,17.509,0,0,1,1.019,7.613c-.127,1.167-.3,2.387-.473,3.624-.639,4.486-1.3,9.126-.026,12.692a10.191,10.191,0,0,0,6.1,6.133,11,11,0,0,0,3.835.68h.028a42.3,42.3,0,0,1-2.369,12.862c-.422,1.2-.786,2.436-1.113,3.692a31.3,31.3,0,0,0-6.261-8.22,9.947,9.947,0,0,0,.536-1.671,12.516,12.516,0,0,0-2.294-8.792,9.448,9.448,0,0,0-7.1-3.807c-8.3-.61-14.85,4.521-15.124,4.739l-2.546,2.033,3.064,1.108a11.945,11.945,0,0,1,4.3,2.957c.552.621,1.112,1.291,1.68,1.972,2.1,2.53,4.283,5.146,6.9,6.229a7.716,7.716,0,0,0,2.96.588,7.866,7.866,0,0,0,3.642-.9,8.346,8.346,0,0,0,1.9-1.387c3.11,3.091,6.355,7.5,7,12.8-.157,1.627-.243,3.291-.258,4.982H32.964a1.822,1.822,0,1,0,0,3.643H54.571c.09,1.8.255,3.481.457,5.034L41.922,93.873H31.335a5.364,5.364,0,1,0,0,3.643h9.049l-.408,2.939a5.408,5.408,0,1,0,3.607.527l.588-4.231,11.492-7.733a49.415,49.415,0,0,0,1.546,6.151c.009.022.022.036.031.057a.214.214,0,0,0,.01.049L61.4,105.3a5.344,5.344,0,1,0,3.6-1.419c-.08,0-.157.02-.239.023l-4.123-9.961c-.029-.092-.132-.412-.284-.936l21.119,3.11-.623,4.331a5.412,5.412,0,1,0,3.6.544l.789-5.494,4.107-3.644,4.087,1.537a5.334,5.334,0,1,0,.831-3.58l-4.663-1.754a1.69,1.69,0,0,0-.255-.042A1.25,1.25,0,0,0,88.636,88a1.928,1.928,0,0,0-.338.08,1.906,1.906,0,0,0-.325.189,1.789,1.789,0,0,0-.221.13L82.962,92.65,59.421,89.183a62.014,62.014,0,0,1-1.2-9.162h48.31a1.822,1.822,0,0,0,0-3.643M56.986,43.1a6.461,6.461,0,0,1-3.931-3.941c-.972-2.72-.376-6.906.2-10.955.182-1.278.361-2.54.492-3.746a20.121,20.121,0,0,0-.335-6.145c3.508,1.112,9.42,3.649,13.505,8.89a8.881,8.881,0,0,1,1.88,7.434,13.547,13.547,0,0,1-4.87,7.71c-.245.138-.493.261-.742.377a42.716,42.716,0,0,0-2.963-13.528,1.823,1.823,0,0,0-3.327,1.489,40.455,40.455,0,0,1,2.662,12.868,7.353,7.353,0,0,1-2.567-.451M44.163,56.754a4.1,4.1,0,0,1-3.521.175c-1.783-.739-3.669-3.006-5.491-5.195-.594-.713-1.179-1.416-1.758-2.067a14.557,14.557,0,0,0-2.786-2.391,19.025,19.025,0,0,1,10.105-2.388A5.754,5.754,0,0,1,45.16,47.24a9.355,9.355,0,0,1,1.674,5.669,32.678,32.678,0,0,0-3.442-2.393,1.821,1.821,0,0,0-1.832,3.147,33.553,33.553,0,0,1,3.47,2.5,4.768,4.768,0,0,1-.866.6M26.311,97.415a1.721,1.721,0,1,1,1.722-1.722,1.72,1.72,0,0,1-1.722,1.722m14.776,10.006a1.721,1.721,0,1,1,1.72-1.722,1.722,1.722,0,0,1-1.72,1.722m25.636,1.822A1.72,1.72,0,1,1,65,107.522a1.722,1.722,0,0,1,1.722,1.722m15.214-1.822A1.721,1.721,0,1,1,83.66,105.7a1.723,1.723,0,0,1-1.723,1.722M98.74,91.04a1.721,1.721,0,1,1-1.723,1.722A1.724,1.724,0,0,1,98.74,91.04" transform="translate(9.54 6.117)" fill="#fff"/><path d="M28.138,58.5a1.822,1.822,0,0,0-1.821-1.821H16.227a1.821,1.821,0,1,0,0,3.642H26.317A1.822,1.822,0,0,0,28.138,58.5" transform="translate(6.561 25.816)" fill="#fff"/><path d="M54.917,49.212a5.364,5.364,0,1,0,2.108-3.525,5.313,5.313,0,0,0-2.108,3.525m4.278-.6a1.722,1.722,0,1,1-.675,1.129,1.714,1.714,0,0,1,.675-1.129" transform="translate(24.986 20.326)" fill="#fff"/><path d="M60.557,43.4A9.046,9.046,0,0,1,68.18,53.653a1.823,1.823,0,0,0,1.538,2.068,1.842,1.842,0,0,0,.268.019,1.819,1.819,0,0,0,1.8-1.556A12.694,12.694,0,0,0,61.089,39.793a1.822,1.822,0,0,0-.533,3.605" transform="translate(26.873 18.115)" fill="#fff"/><path d="M61.356,37.975A17.032,17.032,0,0,1,75.709,57.286a1.822,1.822,0,0,0,1.537,2.067,1.875,1.875,0,0,0,.269.019,1.819,1.819,0,0,0,1.8-1.556A20.678,20.678,0,0,0,61.888,34.37a1.822,1.822,0,0,0-.533,3.605" transform="translate(27.237 15.646)" fill="#fff"/><path d="M62.954,33.112a23.112,23.112,0,0,1,19.477,26.2,1.821,1.821,0,0,0,1.537,2.068,1.841,1.841,0,0,0,.268.019,1.819,1.819,0,0,0,1.8-1.556A26.758,26.758,0,0,0,63.486,29.506a1.822,1.822,0,0,0-.533,3.605" transform="translate(27.964 13.431)" fill="#fff"/></g></g><g transform="translate(1331.682 1192.319)"><g transform="translate(0 0)" clip-path="url(#a)"><path d="M140.274,70.137A70.137,70.137,0,1,1,70.138,0a70.137,70.137,0,0,1,70.136,70.137" transform="translate(0 0)" fill="#f18825"/><path d="M116.1,106.675A62.2,62.2,0,0,0,19.212,28.642a62.242,62.242,0,0,0-4.9,71.022,1.823,1.823,0,0,0,3.123-1.878,58.564,58.564,0,0,1,86.955-75.735,58.56,58.56,0,1,1-81.581,83.262,1.823,1.823,0,0,0-2.789,2.346,62.208,62.208,0,0,0,96.086-.985" transform="translate(2.481 2.482)" fill="#fff"/><path d="M35.8,55.055a1.82,1.82,0,0,1-1.537-2.8c3.065-4.839,2.87-5.924.469-7.669a7.217,7.217,0,0,1-3.026-4.863c-.373-2.594.6-5.553,2.741-8.337a1.822,1.822,0,0,1,2.889,2.221c-1.515,1.969-2.253,4.008-2.023,5.595a3.56,3.56,0,0,0,1.559,2.436c5.774,4.193,2.707,9.031.469,12.565a1.818,1.818,0,0,1-1.54.847" transform="translate(14.406 13.973)" fill="#fff"/><path d="M63.036,55.055a1.821,1.821,0,0,1-1.538-2.8c3.065-4.841,2.87-5.925.47-7.669a7.217,7.217,0,0,1-3.026-4.863c-.374-2.592.6-5.553,2.738-8.337a1.823,1.823,0,0,1,2.891,2.221c-1.514,1.969-2.252,4.008-2.023,5.595a3.565,3.565,0,0,0,1.559,2.436c5.774,4.192,2.709,9.031.47,12.565a1.82,1.82,0,0,1-1.54.847" transform="translate(26.81 13.973)" fill="#fff"/><path d="M48.8,50.446a1.82,1.82,0,0,1-1.537-2.8c3.065-4.841,2.869-5.924.469-7.669a7.213,7.213,0,0,1-3.026-4.863c-.374-2.592.6-5.553,2.739-8.337A1.823,1.823,0,0,1,50.334,29c-1.514,1.968-2.252,4.007-2.022,5.593a3.557,3.557,0,0,0,1.559,2.436c5.772,4.193,2.707,9.031.469,12.565a1.818,1.818,0,0,1-1.54.847" transform="translate(20.326 11.874)" fill="#fff"/><path d="M112.96,52.1a1.819,1.819,0,0,0-1.559-.891H15.974A1.812,1.812,0,0,0,14.387,53.9c1.732,3.155,7.912,8.549,13.779,11.735,3.441,1.867,10.213,5.036,17.3,5.519v1.234a4.8,4.8,0,0,0,4.794,4.8H77.116a4.8,4.8,0,0,0,4.8-4.8V71.152c7.082-.483,13.856-3.652,17.3-5.519,5.864-3.186,12.042-8.58,13.777-11.735a1.817,1.817,0,0,0-.028-1.8M49.086,71.215h29.2v1.172a1.175,1.175,0,0,1-1.173,1.173H50.257a1.174,1.174,0,0,1-1.172-1.173Zm58.557-16.38C102.587,59.768,89.4,67.591,80.1,67.591H47.273c-9.3,0-22.487-7.823-27.542-12.756Z" transform="translate(6.45 23.324)" fill="#fff"/><path d="M53.909,61.292h7.768a21.085,21.085,0,0,0,4.2-.456,1.573,1.573,0,0,0-.314-3.113,1.664,1.664,0,0,0-.317.032,17.817,17.817,0,0,1-3.567.392H53.909a1.573,1.573,0,0,0,0,3.145" transform="translate(23.837 26.29)" fill="#fff"/><path d="M66.868,59.523a1.549,1.549,0,0,0,.584-.114c.467-.188.942-.389,1.409-.6a1.577,1.577,0,0,0,.8-2.077,1.57,1.57,0,0,0-2.075-.795c-.434.194-.87.378-1.3.55a1.572,1.572,0,0,0,.585,3.032" transform="translate(29.739 25.416)" fill="#fff"/></g></g><g transform="translate(1655.046 1192.319)"><g transform="translate(0 0)" clip-path="url(#a)"><path d="M140.274,70.136A70.137,70.137,0,1,1,70.138,0a70.137,70.137,0,0,1,70.136,70.135" transform="translate(0 0.001)" fill="#d8363b"/><path d="M23.67,111.639A62.2,62.2,0,1,0,111.638,23.67,62.243,62.243,0,0,0,41.552,11.182a1.823,1.823,0,0,0,1.533,3.307,58.564,58.564,0,0,1,65.977,94.573A58.561,58.561,0,1,1,35.023,19.024,1.823,1.823,0,0,0,32.988,16a62.209,62.209,0,0,0-9.318,95.638" transform="translate(2.483 2.483)" fill="#fff"/><path d="M60.829,94.665a1.812,1.812,0,0,1-1.124-.387c-1.145-.9-28.079-22.037-33.28-28.918-8.864-11.725-5.954-20.452-3.433-24.609,4.417-7.285,14.154-11.472,23.155-9.957A19.277,19.277,0,0,1,60.829,42.027,19.272,19.272,0,0,1,75.512,30.794c9-1.517,18.736,2.672,23.153,9.957,2.522,4.157,5.43,12.884-3.433,24.609-1.963,2.6-7.181,7.468-15.509,14.482a1.823,1.823,0,0,1-2.348-2.79C87.49,68.536,91.086,64.8,92.324,63.163c5.606-7.418,6.752-14.706,3.225-20.522-3.675-6.059-11.847-9.53-19.433-8.252-4.085.687-11.273,3.394-13.505,13.792a1.823,1.823,0,0,1-3.564,0c-2.233-10.4-9.42-13.1-13.505-13.792-7.586-1.278-15.758,2.193-19.432,8.252-3.528,5.816-2.384,13.1,3.224,20.522,4.346,5.749,26.256,23.217,31.5,27.36,1.626-1.285,4.857-3.854,8.642-6.935a1.822,1.822,0,1,1,2.3,2.825C66.31,90.862,62,94.244,61.951,94.278a1.811,1.811,0,0,1-1.122.387" transform="translate(9.308 13.885)" fill="#fff"/></g></g><g transform="translate(1493.364 1192.319)"><g transform="translate(0 0)" clip-path="url(#a)"><path d="M140.274,70.137A70.137,70.137,0,1,1,70.138,0a70.135,70.135,0,0,1,70.136,70.137" transform="translate(0 0)" fill="#87be42"/><path d="M80.111,22.168a1.837,1.837,0,0,0-3.254-.1,44.644,44.644,0,0,1-8.995,10.817,1.823,1.823,0,0,0,2.4,2.739,50.025,50.025,0,0,0,7.843-8.757,91.034,91.034,0,0,1,4.871,18.182,59.428,59.428,0,0,1,.1,19.1,36.165,36.165,0,0,1-8.375,18.077A25.7,25.7,0,0,1,58.8,90.723,27.038,27.038,0,0,1,40.57,86.441,22.322,22.322,0,0,1,36.827,83.4a34.968,34.968,0,0,1,5.26-5.408c5.264-4.4,11.342-7.7,16.776-11.869a48.336,48.336,0,0,0,8.912-8.609,1.884,1.884,0,0,0,0-2.576,1.83,1.83,0,0,0-2.576,0C56.863,65.664,43.042,70.16,34.43,80.465a18.463,18.463,0,0,1-3.013-8.1,20.3,20.3,0,0,1,5.7-16.244C41.5,51.46,46.5,49.088,52.29,46.34c3.077-1.46,6.26-2.971,9.791-4.989a1.823,1.823,0,0,0-1.809-3.164c-3.41,1.952-6.528,3.429-9.543,4.861C44.6,45.953,39.319,48.461,34.46,53.617A23.929,23.929,0,0,0,27.8,72.793a22.134,22.134,0,0,0,4.346,10.754A32.022,32.022,0,0,0,27.7,94.711c-.457,2.291,3.054,3.27,3.513.969a29.075,29.075,0,0,1,3.524-9.219A26.384,26.384,0,0,0,38.582,89.5a30.817,30.817,0,0,0,16.843,5.068A29.206,29.206,0,0,0,77.44,84.642a39.772,39.772,0,0,0,9.242-19.916A63.206,63.206,0,0,0,86.569,44.4a90.746,90.746,0,0,0-6.458-22.235" transform="translate(12.59 9.625)" fill="#fff"/><path d="M111.638,23.669A62.2,62.2,0,1,0,23.67,111.637a62.241,62.241,0,0,0,70.086,12.489,1.823,1.823,0,0,0-1.533-3.307A58.564,58.564,0,0,1,26.247,26.247a58.56,58.56,0,1,1,74.039,90.036,1.823,1.823,0,0,0,2.035,3.024,62.209,62.209,0,0,0,9.318-95.638" transform="translate(2.483 2.482)" fill="#fff"/></g></g></g></svg>