<?xml version="1.0" encoding="utf-8"?>
<!-- Generator: Adobe Illustrator 26.1.0, SVG Export Plug-In . SVG Version: 6.00 Build 0)  -->
<svg version="1.1" id="Livello_1" xmlns="http://www.w3.org/2000/svg" xmlns:xlink="http://www.w3.org/1999/xlink" x="0px" y="0px"
	 viewBox="0 0 400 400" style="enable-background:new 0 0 400 400;" xml:space="preserve">
<style type="text/css">
	.st0{fill:#1F3262;}
	.st1{fill:#FFFFFF;}
</style>
<g>
	<rect x="2.29" y="2.34" class="st0" width="395.52" height="395.52"/>
	<path class="st1" d="M395.8,4.36v391.49H4.31V4.36H395.8 M399.83,0.32h-4.03H4.31H0.28v4.03v391.49v4.03h4.03H395.8h4.03v-4.03
		V4.36V0.32L399.83,0.32z"/>
</g>
<path class="st1" d="M38.43,53.15c-0.68,0.37-2.64,1.14-5.9,2.3c-2.58,0.86-4.21,1.44-4.88,1.75v-10.6c2.09-0.8,4.62-2.03,7.6-3.68
	c2.98-1.66,5.08-3.17,6.31-4.52h11.15v74.65H38.43V53.15z"/>
<polygon class="st1" points="81.47,49.28 61.19,49.28 61.19,38.41 95.38,38.41 95.38,47.72 79.62,113.05 65.8,113.05 "/>
<path class="st1" d="M134.62,50.5h1.67c1.46,0,2.46-0.29,2.97-0.87c0.52-0.58,0.77-1.65,0.77-3.2c0-0.88-0.03-1.57-0.1-2.05
	c-0.07-0.48-0.23-0.92-0.48-1.32c-0.25-0.4-0.63-0.67-1.13-0.82c-0.5-0.15-1.17-0.22-2.02-0.22h-1.69V50.5z M129.42,66.89V38.36
	h8.21c4.86,0,7.29,2.7,7.29,8.11c0,2.65-0.67,4.59-1.99,5.83c-1.33,1.23-3.21,1.85-5.63,1.85h-2.68v12.75H129.42z"/>
<path class="st1" d="M150.67,56.88h3.82l-1.91-11.72L150.67,56.88z M144.05,66.89l5.8-28.53h5.42l5.79,28.53h-4.84l-1.15-6.62h-4.94
	l-1.17,6.62H144.05z"/>
<path class="st1" d="M168.27,50.55h1.25c1.54,0,2.63-0.33,3.28-0.98c0.65-0.65,0.97-1.77,0.97-3.35c0-1.52-0.28-2.62-0.84-3.28
	c-0.56-0.66-1.6-0.99-3.1-0.99h-1.57V50.55z M163.07,66.89V38.36h6.54c1.5,0,2.8,0.13,3.87,0.37c1.08,0.25,2.01,0.66,2.81,1.24
	s1.4,1.36,1.79,2.36c0.4,0.99,0.59,2.21,0.59,3.64c0,1.79-0.27,3.25-0.8,4.39c-0.53,1.13-1.41,1.96-2.64,2.48l3.96,14.06h-5.21
	l-3.41-13.02h-2.3v13.02H163.07z"/>
<polygon class="st1" points="184.63,66.89 184.63,42.2 179.85,42.2 179.85,38.36 194.46,38.36 194.46,42.2 189.83,42.2 
	189.83,66.89 "/>
<polygon class="st1" points="195.95,66.89 195.95,38.36 199.53,38.36 206.51,54.52 206.51,38.36 210.82,38.36 210.82,66.89 
	207.41,66.89 200.36,49.91 200.36,66.89 "/>
<polygon class="st1" points="214.31,66.89 214.31,38.36 226.25,38.36 226.25,42.03 219.51,42.03 219.51,50.22 224.84,50.22 
	224.84,53.89 219.51,53.89 219.51,63.3 226.34,63.3 226.34,66.89 "/>
<path class="st1" d="M233.75,50.55h1.25c1.54,0,2.63-0.33,3.28-0.98c0.65-0.65,0.97-1.77,0.97-3.35c0-1.52-0.28-2.62-0.84-3.28
	c-0.56-0.66-1.6-0.99-3.1-0.99h-1.57V50.55z M228.55,66.89V38.36h6.54c1.5,0,2.8,0.13,3.87,0.37c1.08,0.25,2.02,0.66,2.81,1.24
	c0.8,0.58,1.4,1.36,1.79,2.36c0.4,0.99,0.59,2.21,0.59,3.64c0,1.79-0.27,3.25-0.8,4.39c-0.54,1.13-1.42,1.96-2.64,2.48l3.96,14.06
	h-5.21l-3.41-13.02h-2.3v13.02H228.55z"/>
<path class="st1" d="M254.52,67.24c-5.02,0-7.66-2.9-7.92-8.71l4.53-0.94c0.11,3.77,1.19,5.66,3.24,5.66c0.79,0,1.38-0.24,1.76-0.73
	c0.38-0.48,0.58-1.13,0.58-1.94c0-0.79-0.15-1.51-0.43-2.17c-0.29-0.66-0.62-1.2-1-1.62c-0.38-0.42-0.92-0.94-1.62-1.56l-3.75-3.25
	c-1.1-0.96-1.92-1.96-2.46-3c-0.54-1.04-0.81-2.34-0.81-3.9c0-2.21,0.65-3.93,1.95-5.16c1.3-1.23,3.09-1.85,5.36-1.88
	c1.04-0.01,1.97,0.12,2.77,0.39c0.8,0.27,1.46,0.63,1.99,1.09c0.52,0.45,0.96,1.02,1.3,1.69c0.35,0.67,0.61,1.38,0.78,2.11
	c0.17,0.73,0.29,1.54,0.36,2.44l-4.44,0.88c-0.02-0.57-0.06-1.07-0.11-1.5c-0.05-0.42-0.14-0.86-0.27-1.29
	c-0.13-0.44-0.29-0.79-0.49-1.06c-0.2-0.27-0.47-0.48-0.81-0.65c-0.34-0.16-0.73-0.22-1.18-0.19c-0.77,0.05-1.36,0.3-1.76,0.77
	c-0.41,0.46-0.61,1.09-0.61,1.87c0,0.92,0.18,1.67,0.54,2.26c0.36,0.59,0.92,1.23,1.69,1.9l3.72,3.23c0.62,0.56,1.16,1.11,1.62,1.63
	c0.46,0.53,0.9,1.13,1.32,1.81c0.42,0.68,0.74,1.42,0.96,2.24c0.22,0.81,0.33,1.67,0.33,2.58c0,2.08-0.66,3.76-1.97,5.06
	C258.37,66.59,256.65,67.24,254.52,67.24"/>
<polygon class="st1" points="263.98,66.89 263.98,38.36 269.17,38.36 269.17,50.29 274.97,50.29 274.97,38.36 280.17,38.36 
	280.17,66.89 274.97,66.89 274.97,53.99 269.17,53.99 269.17,66.89 "/>
<rect x="283.87" y="38.37" class="st1" width="5.13" height="28.53"/>
<path class="st1" d="M297.8,50.5h1.67c1.46,0,2.46-0.29,2.97-0.87c0.52-0.58,0.77-1.65,0.77-3.2c0-0.88-0.03-1.57-0.1-2.05
	c-0.07-0.48-0.23-0.92-0.48-1.32c-0.25-0.4-0.63-0.67-1.13-0.82c-0.5-0.15-1.17-0.22-2.02-0.22h-1.69V50.5z M292.61,66.89V38.36
	h8.21c4.86,0,7.29,2.7,7.29,8.11c0,2.65-0.67,4.59-1.99,5.83c-1.33,1.23-3.21,1.85-5.63,1.85h-2.68v12.75H292.61z"/>
<path class="st1" d="M317.3,67.24c-5.02,0-7.66-2.9-7.92-8.71l4.53-0.94c0.11,3.77,1.19,5.66,3.24,5.66c0.79,0,1.38-0.24,1.76-0.73
	c0.38-0.48,0.58-1.13,0.58-1.94c0-0.79-0.15-1.51-0.43-2.17c-0.29-0.66-0.62-1.2-1-1.62c-0.38-0.42-0.92-0.94-1.62-1.56l-3.75-3.25
	c-1.1-0.96-1.92-1.96-2.46-3c-0.54-1.04-0.81-2.34-0.81-3.9c0-2.21,0.65-3.93,1.95-5.16c1.3-1.23,3.09-1.85,5.36-1.88
	c1.04-0.01,1.97,0.12,2.77,0.39c0.8,0.27,1.46,0.63,1.99,1.09c0.52,0.45,0.96,1.02,1.31,1.69c0.35,0.67,0.61,1.38,0.78,2.11
	c0.17,0.73,0.29,1.54,0.36,2.44l-4.44,0.88c-0.02-0.57-0.06-1.07-0.11-1.5c-0.05-0.42-0.14-0.86-0.27-1.29
	c-0.13-0.44-0.29-0.79-0.49-1.06c-0.2-0.27-0.47-0.48-0.81-0.65s-0.73-0.22-1.18-0.19c-0.77,0.05-1.36,0.3-1.76,0.77
	c-0.41,0.46-0.61,1.09-0.61,1.87c0,0.92,0.18,1.67,0.54,2.26c0.36,0.59,0.92,1.23,1.69,1.9l3.72,3.23c0.62,0.56,1.16,1.11,1.62,1.63
	c0.46,0.53,0.9,1.13,1.32,1.81c0.42,0.68,0.74,1.42,0.96,2.24c0.22,0.81,0.33,1.67,0.33,2.58c0,2.08-0.66,3.76-1.97,5.06
	C321.15,66.59,319.43,67.24,317.3,67.24"/>
<polygon class="st1" points="129.42,113.51 129.42,84.99 141.14,84.99 141.14,88.59 134.62,88.59 134.62,96.88 139.83,96.88 
	139.83,100.54 134.62,100.54 134.62,113.51 "/>
<path class="st1" d="M149.28,109.78c0.36,0.15,0.79,0.22,1.3,0.22s0.94-0.07,1.29-0.22c0.36-0.15,0.64-0.35,0.85-0.59
	c0.21-0.24,0.38-0.55,0.5-0.94c0.12-0.39,0.2-0.78,0.24-1.17c0.04-0.39,0.06-0.86,0.06-1.39V92.73c0-0.69-0.03-1.26-0.1-1.72
	c-0.07-0.46-0.21-0.89-0.41-1.3c-0.2-0.41-0.5-0.71-0.9-0.91c-0.4-0.2-0.91-0.3-1.53-0.3c-0.62,0-1.13,0.1-1.54,0.3
	c-0.41,0.2-0.71,0.5-0.9,0.91c-0.2,0.41-0.33,0.84-0.4,1.3c-0.07,0.46-0.1,1.03-0.1,1.72v12.96c0,0.54,0.02,1,0.06,1.39
	c0.04,0.39,0.12,0.78,0.24,1.17c0.12,0.39,0.28,0.71,0.49,0.94C148.63,109.44,148.92,109.63,149.28,109.78 M150.58,113.86
	c-2.94,0-5.04-0.79-6.31-2.39c-1.27-1.59-1.91-3.93-1.91-7V93.94c0-1.52,0.14-2.83,0.43-3.94c0.29-1.11,0.75-2.08,1.38-2.89
	c0.64-0.81,1.49-1.43,2.56-1.83c1.07-0.41,2.35-0.61,3.85-0.61c2.92,0,5.03,0.79,6.31,2.36c1.28,1.57,1.92,3.88,1.92,6.92v10.53
	c0,1.49-0.15,2.8-0.44,3.93c-0.29,1.13-0.76,2.11-1.39,2.94c-0.64,0.83-1.49,1.46-2.56,1.88
	C153.35,113.65,152.07,113.86,150.58,113.86"/>
<path class="st1" d="M166.74,97.17H168c1.54,0,2.63-0.33,3.28-0.98c0.65-0.65,0.97-1.77,0.97-3.35c0-1.52-0.28-2.62-0.84-3.28
	c-0.56-0.66-1.6-0.99-3.1-0.99h-1.57V97.17z M161.55,113.51V84.99h6.54c1.5,0,2.8,0.13,3.87,0.37c1.08,0.25,2.01,0.66,2.81,1.24
	s1.4,1.36,1.79,2.36c0.4,0.99,0.59,2.21,0.59,3.64c0,1.79-0.27,3.25-0.8,4.39c-0.54,1.14-1.42,1.96-2.64,2.48l3.96,14.06h-5.21
	l-3.41-13.02h-2.3v13.02H161.55z"/>
<polygon class="st1" points="190.37,113.51 190.37,88.82 185.58,88.82 185.58,84.99 200.19,84.99 200.19,88.82 195.56,88.82 
	195.56,113.51 "/>
<polygon class="st1" points="201.46,113.51 201.46,84.99 206.65,84.99 206.65,96.91 212.45,96.91 212.45,84.99 217.65,84.99 
	217.65,113.51 212.45,113.51 212.45,100.61 206.65,100.61 206.65,113.51 "/>
<polygon class="st1" points="220.91,113.51 220.91,84.99 232.85,84.99 232.85,88.65 226.11,88.65 226.11,96.84 231.44,96.84 
	231.44,100.51 226.11,100.51 226.11,109.92 232.94,109.92 232.94,113.51 "/>
<path class="st1" d="M249.56,113.89c-2.7,0-4.64-0.84-5.82-2.53c-1.19-1.68-1.78-4.14-1.78-7.36v-9.29c0-1.64,0.13-3.05,0.39-4.24
	c0.26-1.19,0.69-2.23,1.3-3.12c0.61-0.9,1.44-1.57,2.51-2.01c1.07-0.45,2.37-0.67,3.92-0.67c2.82,0,4.85,0.69,6.07,2.07
	c1.23,1.38,1.84,3.48,1.84,6.29v1.4h-4.97v-1.48c0-0.63-0.01-1.15-0.04-1.55c-0.03-0.4-0.1-0.81-0.21-1.21
	c-0.11-0.4-0.26-0.72-0.47-0.94c-0.21-0.22-0.49-0.4-0.84-0.53c-0.36-0.14-0.79-0.21-1.31-0.21c-0.39,0-0.74,0.05-1.04,0.15
	c-0.3,0.1-0.56,0.22-0.77,0.36c-0.21,0.15-0.38,0.35-0.52,0.61c-0.14,0.26-0.25,0.52-0.33,0.77c-0.07,0.25-0.13,0.56-0.17,0.95
	c-0.04,0.39-0.07,0.73-0.08,1.03c-0.01,0.3-0.02,0.68-0.02,1.15v11.51c0,1.72,0.21,2.98,0.64,3.78s1.23,1.2,2.42,1.2
	c0.62,0,1.14-0.12,1.56-0.36c0.42-0.23,0.75-0.59,0.98-1.07c0.23-0.48,0.4-1.02,0.5-1.64c0.1-0.61,0.15-1.36,0.15-2.23v-2.34h-3.08
	v-3.35h7.76v14.48h-3.37l-0.38-2.89C253.53,112.8,251.92,113.89,249.56,113.89"/>
<path class="st1" d="M267.47,109.78c0.36,0.15,0.79,0.22,1.3,0.22s0.94-0.07,1.29-0.22c0.36-0.15,0.64-0.35,0.85-0.59
	c0.21-0.24,0.38-0.55,0.5-0.94c0.12-0.39,0.2-0.78,0.24-1.17c0.04-0.39,0.06-0.86,0.06-1.39V92.73c0-0.69-0.03-1.26-0.1-1.72
	c-0.07-0.46-0.21-0.89-0.41-1.3c-0.2-0.41-0.5-0.71-0.9-0.91c-0.4-0.2-0.91-0.3-1.53-0.3c-0.62,0-1.13,0.1-1.54,0.3
	c-0.41,0.2-0.71,0.5-0.9,0.91c-0.2,0.41-0.33,0.84-0.4,1.3c-0.07,0.46-0.1,1.03-0.1,1.72v12.96c0,0.54,0.02,1,0.06,1.39
	c0.04,0.39,0.12,0.78,0.24,1.17c0.12,0.39,0.28,0.71,0.49,0.94C266.82,109.44,267.11,109.63,267.47,109.78 M268.77,113.86
	c-2.94,0-5.04-0.79-6.31-2.39c-1.27-1.59-1.91-3.93-1.91-7V93.94c0-1.52,0.14-2.83,0.43-3.94c0.29-1.11,0.75-2.08,1.38-2.89
	c0.64-0.81,1.49-1.43,2.56-1.83c1.07-0.41,2.35-0.61,3.85-0.61c2.92,0,5.03,0.79,6.31,2.36c1.28,1.57,1.92,3.88,1.92,6.92v10.53
	c0,1.49-0.15,2.8-0.44,3.93c-0.29,1.13-0.76,2.11-1.39,2.94c-0.64,0.83-1.49,1.46-2.56,1.88
	C271.54,113.65,270.26,113.86,268.77,113.86"/>
<path class="st1" d="M284.88,103.5h3.82l-1.91-11.72L284.88,103.5z M278.26,113.51l5.8-28.53h5.42l5.79,28.53h-4.84l-1.15-6.62
	h-4.94l-1.17,6.62H278.26z"/>
<polygon class="st1" points="297.01,113.51 297.01,84.99 302.2,84.99 302.2,109.92 309.03,109.92 309.03,113.51 "/>
<path class="st1" d="M317.92,113.86c-5.02,0-7.66-2.9-7.92-8.71l4.53-0.94c0.11,3.77,1.19,5.66,3.23,5.66
	c0.79,0,1.38-0.24,1.77-0.72c0.38-0.48,0.58-1.13,0.58-1.94c0-0.79-0.15-1.52-0.43-2.18c-0.29-0.66-0.62-1.2-1-1.61
	c-0.38-0.42-0.92-0.94-1.62-1.56l-3.75-3.25c-1.1-0.96-1.92-1.96-2.46-3c-0.54-1.04-0.81-2.34-0.81-3.9c0-2.21,0.65-3.93,1.95-5.16
	c1.3-1.23,3.09-1.85,5.36-1.88c1.04-0.01,1.97,0.12,2.77,0.39c0.8,0.27,1.46,0.63,1.99,1.09c0.52,0.45,0.96,1.02,1.3,1.69
	c0.35,0.68,0.61,1.38,0.78,2.11c0.17,0.73,0.29,1.54,0.36,2.44l-4.44,0.88c-0.02-0.57-0.06-1.07-0.11-1.5
	c-0.05-0.42-0.14-0.86-0.27-1.29c-0.13-0.44-0.29-0.79-0.49-1.06c-0.2-0.27-0.47-0.48-0.81-0.65c-0.34-0.16-0.73-0.22-1.18-0.19
	c-0.77,0.05-1.36,0.3-1.76,0.77c-0.41,0.46-0.61,1.09-0.61,1.87c0,0.92,0.18,1.67,0.54,2.26c0.36,0.59,0.92,1.23,1.69,1.9l3.72,3.23
	c0.62,0.56,1.16,1.11,1.62,1.64c0.46,0.52,0.9,1.13,1.32,1.8c0.42,0.68,0.74,1.42,0.96,2.24c0.22,0.81,0.33,1.67,0.33,2.58
	c0,2.07-0.66,3.76-1.97,5.06C321.78,113.21,320.05,113.86,317.92,113.86"/>
<path class="st1" d="M237.18,245.39c10.09-9.36,16.42-22.72,16.42-37.54c0-2.21-0.16-4.4-0.43-6.55c20.5,2.2,36.53,19.6,36.53,40.68
	c0,11.97-5.2,22.73-13.44,30.22C268.55,257.76,254.12,247.42,237.18,245.39 M271.95,296.23c0,22.55-18.35,40.91-40.91,40.91
	c-7.34,0-14.21-1.97-20.17-5.37c8.7-9.19,14.06-21.58,14.06-35.2c0-3.35-0.33-6.63-0.95-9.8c7.35,4.09,15.81,6.43,24.81,6.43
	c8,0,15.58-1.85,22.33-5.14C271.67,290.71,271.95,293.44,271.95,296.23 M132.8,296.58c0-2.91,0.31-5.74,0.89-8.48
	c6.74,3.26,14.29,5.1,22.27,5.1c8.97,0,17.4-2.32,24.74-6.39c-0.57,3.05-0.89,6.2-0.89,9.42c0,13.84,5.53,26.4,14.48,35.63
	c-6.05,3.55-13.08,5.62-20.58,5.62C151.15,337.48,132.8,319.12,132.8,296.58 M115.06,241.98c0-21.08,16.02-38.48,36.52-40.68
	c-0.27,2.15-0.43,4.33-0.43,6.55c0,14.97,6.46,28.47,16.73,37.84c-16.99,1.94-31.48,12.2-39.28,26.62
	C120.31,264.82,115.06,254.01,115.06,241.98 M202.37,166.94c16.76,0,31.18,10.14,37.5,24.6c-16.64,2.94-30.53,13.92-37.5,28.79
	c-6.96-14.87-20.85-25.85-37.5-28.79C171.19,177.08,185.62,166.94,202.37,166.94 M212.12,260c5.67-2.97,12.09-4.68,18.93-4.68
	c16.08,0,29.99,9.36,36.67,22.88c-5.67,2.97-12.11,4.68-18.93,4.68C232.7,282.89,218.8,273.53,212.12,260 M192.5,260.27
	c-6.73,13.39-20.56,22.61-36.54,22.61c-6.77,0-13.16-1.69-18.79-4.62c6.73-13.38,20.56-22.61,36.54-22.61
	C180.49,255.66,186.87,257.34,192.5,260.27 M162,201.56c19.7,2.93,34.88,19.91,34.88,40.42c0,2.14-0.22,4.23-0.54,6.29
	c-19.7-2.93-34.88-19.91-34.88-40.41C161.47,205.7,161.68,203.61,162,201.56 M202.56,325.53c-7.66-7.44-12.43-17.82-12.43-29.3
	c0-11.31,4.62-21.56,12.06-28.97c7.65,7.44,12.43,17.82,12.43,29.31C214.62,307.88,210.01,318.13,202.56,325.53 M243.29,207.85
	c0,20.5-15.18,37.48-34.88,40.41c-0.32-2.05-0.53-4.15-0.53-6.29c0-20.51,15.17-37.49,34.87-40.42
	C243.07,203.61,243.29,205.7,243.29,207.85 M300.01,241.98c0-27.62-21.97-50.18-49.34-51.19c-7.04-19.88-26.03-34.17-48.3-34.17
	c-22.26,0-41.25,14.29-48.3,34.17c-27.37,1-49.33,23.57-49.33,51.19c0,16.39,7.75,31,19.76,40.38c-1.3,4.52-2.02,9.28-2.02,14.22
	c0,28.23,22.98,51.21,51.23,51.21c10.72,0,20.67-3.32,28.91-8.97c8.14,5.45,17.91,8.63,28.42,8.63c28.24,0,51.22-22.98,51.22-51.22
	c0-4.83-0.69-9.51-1.94-13.93C292.29,272.91,300.01,258.33,300.01,241.98"/>
</svg>
