<svg xmlns="http://www.w3.org/2000/svg" xmlns:xlink="http://www.w3.org/1999/xlink" width="386.443" height="316.378" viewBox="0 0 386.443 316.378">
  <defs>
    <clipPath id="clip-path">
      <path id="Path_61" data-name="Path 61" d="M0,272.37H386.443V-44.008H0Z" transform="translate(0 44.008)" fill="rgba(255,255,255,0.44)"/>
    </clipPath>
  </defs>
  <g id="Group_217" data-name="Group 217" transform="translate(0 44.008)">
    <g id="Group_56" data-name="Group 56" transform="translate(0 -44.008)" clip-path="url(#clip-path)">
      <g id="Group_55" data-name="Group 55" transform="translate(0 0.004)">
        <path id="Path_60" data-name="Path 60" d="M0,175.771Q0,226.81,26.442,257.4t69.21,30.575q36.319,0,57.017-22.761t20.7-56.787q0-30.356-18.857-51.74T106.226,135.3q-5.521,0-22.991,2.3-5.068,0-11.955-4.141-6.9-3.677-6.9-15.636,0-34.939,37.247-73.113,21.147-21.147,65.3-52.423L155.889-28.4Q67.6,17.118,33.8,72.075T0,175.771m213.078,0q0,51.039,26.672,81.625t68.059,30.575q36.319,0,57.484-21.841,21.147-21.837,21.15-57.707,0-30.809-19.08-51.97-19.1-21.136-48.059-21.15-5.521,0-22.991,2.3-8.746,0-13.8-5.981-5.068-5.963-5.061-15.629,0-33.57,39.087-72.66Q338.618,21.259,380.009-7.71L368.967-28.4Q284.822,14.821,248.952,69.544T213.078,175.771" transform="translate(0 28.4)" fill="rgba(255,255,255,0.44)"/>
      </g>
    </g>
  </g>
</svg>
