<svg xmlns="http://www.w3.org/2000/svg" xmlns:xlink="http://www.w3.org/1999/xlink" width="70" height="70" viewBox="0 0 70 70">
  <defs>
    <filter id="Ellipse_10" x="0" y="0" width="70" height="70" filterUnits="userSpaceOnUse">
      <feOffset input="SourceAlpha"/>
      <feGaussianBlur stdDeviation="5" result="blur"/>
      <feFlood flood-opacity="0.2"/>
      <feComposite operator="in" in2="blur"/>
      <feComposite in="SourceGraphic"/>
    </filter>
    <filter id="Path_66" x="9.858" y="12.755" width="50.273" height="46.475" filterUnits="userSpaceOnUse">
      <feOffset input="SourceAlpha"/>
      <feGaussianBlur stdDeviation="5" result="blur-2"/>
      <feFlood flood-opacity="0.2"/>
      <feComposite operator="in" in2="blur-2"/>
      <feComposite in="SourceGraphic"/>
    </filter>
  </defs>
  <g id="Group_74" data-name="Group 74" transform="translate(15 14.999)">
    <g id="Group_68" data-name="Group 68">
      <g transform="matrix(1, 0, 0, 1, -15, -15)" filter="url(#Ellipse_10)">
        <g id="Ellipse_10-2" data-name="Ellipse 10" transform="translate(15 15)" fill="none" stroke="#fff" stroke-width="1.5">
          <circle cx="20" cy="20" r="20" stroke="none"/>
          <circle cx="20" cy="20" r="19.25" fill="none"/>
        </g>
      </g>
    </g>
    <g transform="matrix(1, 0, 0, 1, -15, -15)" filter="url(#Path_66)">
      <path id="Path_66-2" data-name="Path 66" d="M269.007,153.9a11.83,11.83,0,0,0,18.2-10.5,8.432,8.432,0,0,0,2.074-2.153,8.294,8.294,0,0,1-2.388.655,4.165,4.165,0,0,0,1.828-2.3,8.344,8.344,0,0,1-2.64,1.01,4.163,4.163,0,0,0-7.088,3.794,11.8,11.8,0,0,1-8.573-4.346,4.164,4.164,0,0,0,1.287,5.553,4.146,4.146,0,0,1-1.885-.521,4.165,4.165,0,0,0,3.336,4.132,4.164,4.164,0,0,1-1.877.07,4.161,4.161,0,0,0,3.885,2.889A8.365,8.365,0,0,1,269.007,153.9Z" transform="translate(-244.15 -111.54)" fill="#fff"/>
    </g>
  </g>
</svg>
