<svg xmlns="http://www.w3.org/2000/svg" width="40" height="40" viewBox="0 0 40 40">
  <g id="Group_74" data-name="Group 74" transform="translate(-1496 -918)">
    <g id="Group_68" data-name="Group 68" transform="translate(1336 909)">
      <g id="Ellipse_10" data-name="Ellipse 10" transform="translate(160 9)" fill="none" stroke="#333" stroke-width="2">
        <circle cx="20" cy="20" r="20" stroke="none"/>
        <circle cx="20" cy="20" r="19" fill="none"/>
      </g>
    </g>
    <path id="Path_66" data-name="Path 66" d="M269.007,153.907a11.834,11.834,0,0,0,18.2-10.507,8.433,8.433,0,0,0,2.075-2.154,8.3,8.3,0,0,1-2.389.655,4.166,4.166,0,0,0,1.829-2.3,8.347,8.347,0,0,1-2.641,1.01,4.164,4.164,0,0,0-7.09,3.8,11.807,11.807,0,0,1-8.575-4.347,4.165,4.165,0,0,0,1.287,5.555,4.147,4.147,0,0,1-1.885-.521,4.166,4.166,0,0,0,3.337,4.133,4.165,4.165,0,0,1-1.878.07,4.162,4.162,0,0,0,3.886,2.89A8.367,8.367,0,0,1,269.007,153.907Z" transform="translate(1236.854 791.464)" fill="#333"/>
  </g>
</svg>
