<svg xmlns="http://www.w3.org/2000/svg" xmlns:xlink="http://www.w3.org/1999/xlink" width="300" height="300" viewBox="0 0 300 300"><defs><clipPath id="a"><rect width="300" height="300" fill="none"/></clipPath></defs><g transform="translate(0 0)" clip-path="url(#a)"><path d="M300,150A150,150,0,1,1,150,0,150,150,0,0,1,300,150" transform="translate(0 0)" fill="#87be42"/><path d="M139.854,23.347a3.928,3.928,0,0,0-6.96-.209,95.478,95.478,0,0,1-19.237,23.134c-3.785,3.328,1.36,9.183,5.142,5.858A106.987,106.987,0,0,0,135.574,33.4a194.691,194.691,0,0,1,10.418,38.884c2.275,14.81,2.35,28.556.215,40.858-2.63,15.162-8.657,28.167-17.911,38.66a54.964,54.964,0,0,1-34.016,18.16,57.824,57.824,0,0,1-38.99-9.158,47.739,47.739,0,0,1-8.006-6.509A74.785,74.785,0,0,1,58.534,142.73c11.259-9.4,24.258-16.463,35.877-25.384a103.376,103.376,0,0,0,19.059-18.412c1.3-1.675,1.6-3.875,0-5.51-1.326-1.363-4.221-1.659-5.51,0-17.827,22.947-47.385,32.562-65.8,54.6a39.487,39.487,0,0,1-6.443-17.332c-1.472-12.3,2.966-24.958,12.183-34.741C57.28,85.994,67.972,80.92,80.354,75.043c6.58-3.122,13.388-6.353,20.939-10.67,4.377-2.5.5-9.27-3.869-6.767C90.131,61.78,83.464,64.939,77.014,68c-13.1,6.213-24.4,11.576-34.791,22.6-10.8,11.47-16,26.418-14.247,41.01a47.337,47.337,0,0,0,9.295,23,68.485,68.485,0,0,0-9.5,23.875c-.977,4.9,6.531,6.994,7.514,2.073a62.182,62.182,0,0,1,7.536-19.716,56.427,56.427,0,0,0,8.221,6.49,65.907,65.907,0,0,0,36.021,10.839,62.462,62.462,0,0,0,47.083-21.22c10.244-11.614,16.893-25.942,19.766-42.595,2.266-13.158,2.185-27.781-.243-43.463a194.077,194.077,0,0,0-13.811-47.553" transform="translate(58.402 44.648)" fill="#fff"/><path d="M232.551,44.415A133.031,133.031,0,1,0,44.416,232.549a133.113,133.113,0,0,0,149.891,26.71c4.573-2.117,1.3-9.192-3.278-7.072a125.249,125.249,0,0,1-141.1-202.26A125.241,125.241,0,1,1,208.271,242.485c-4.184,2.811.168,9.279,4.352,6.468A133.044,133.044,0,0,0,232.551,44.415" transform="translate(11.517 11.515)" fill="#fff"/></g></svg>