<svg xmlns="http://www.w3.org/2000/svg" xmlns:xlink="http://www.w3.org/1999/xlink" width="300" height="300" viewBox="0 0 300 300"><defs><clipPath id="a"><rect width="300" height="300" fill="none"/></clipPath></defs><g transform="translate(0 0)" clip-path="url(#a)"><path d="M300,150A150,150,0,1,1,150,0,150,150,0,0,1,300,150" transform="translate(0 0)" fill="#13a6aa"/><path d="M44.416,44.416A133.031,133.031,0,1,0,232.55,232.55a133.107,133.107,0,0,0,26.71-149.888c-2.117-4.576-9.192-1.3-7.075,3.271a125.256,125.256,0,0,1-113.7,177.787A125.235,125.235,0,0,1,49.929,49.929,125.251,125.251,0,0,1,242.486,68.7c2.811,4.184,9.279-.168,6.468-4.348A133.042,133.042,0,0,0,44.416,44.416" transform="translate(11.517 11.517)" fill="#fff"/><path d="M203.985,148.054H100.5a99.8,99.8,0,0,1,5.36-32.323A99.346,99.346,0,0,0,111.493,84.3a27.651,27.651,0,0,0,5.239-2.272c3.9-2.229,12.059-10.9,14.194-21.746A26.82,26.82,0,0,0,125.4,38.087C110.412,18.853,86.407,14.72,85.386,14.555L78.5,13.431l2.665,6.459a37.447,37.447,0,0,1,2.179,16.283c-.271,2.5-.641,5.1-1.012,7.751-1.366,9.593-2.773,19.517-.056,27.143A21.794,21.794,0,0,0,95.319,84.184a23.516,23.516,0,0,0,8.2,1.454l.059,0a90.455,90.455,0,0,1-5.068,27.507c-.9,2.571-1.681,5.211-2.381,7.9A66.945,66.945,0,0,0,82.74,103.458a21.275,21.275,0,0,0,1.145-3.573c.831-3.813-.146-12.429-4.906-18.8a20.207,20.207,0,0,0-15.193-8.143c-17.746-1.3-31.759,9.668-32.345,10.135L26,87.421,32.55,89.79a25.546,25.546,0,0,1,9.2,6.325c1.18,1.329,2.378,2.761,3.592,4.218,4.5,5.41,9.161,11.007,14.748,13.323a16.5,16.5,0,0,0,6.331,1.258,16.822,16.822,0,0,0,7.788-1.921,17.85,17.85,0,0,0,4.071-2.966c6.652,6.611,13.59,16.031,14.979,27.373-.336,3.48-.52,7.038-.551,10.655H46.648a3.9,3.9,0,1,0,0,7.791H92.86c.193,3.841.545,7.446.977,10.767l-28.03,18.857H43.165a11.472,11.472,0,1,0,0,7.791H62.517l-.872,6.285a11.567,11.567,0,1,0,7.713,1.127l1.258-9.049,24.578-16.538A105.683,105.683,0,0,0,98.5,188.239c.019.047.047.078.065.121a.458.458,0,0,0,.022.106l8.871,21.437a11.43,11.43,0,1,0,7.707-3.035c-.171,0-.336.044-.51.05l-8.818-21.3c-.062-.2-.283-.881-.607-2l45.166,6.652-1.332,9.264a11.573,11.573,0,1,0,7.707,1.164l1.687-11.751,8.784-7.794,8.741,3.287a11.408,11.408,0,1,0,1.777-7.657l-9.973-3.751a3.612,3.612,0,0,0-.545-.09,2.673,2.673,0,0,0-1.528-.031,4.122,4.122,0,0,0-.722.171,4.076,4.076,0,0,0-.694.4,3.826,3.826,0,0,0-.473.277l-10.247,9.1-50.346-7.415a132.627,132.627,0,0,1-2.565-19.595H203.985a3.9,3.9,0,0,0,0-7.791M98.024,76.878a13.818,13.818,0,0,1-8.408-8.429c-2.079-5.818-.8-14.77.42-23.43.389-2.733.772-5.432,1.052-8.012a43.033,43.033,0,0,0-.716-13.142c7.5,2.378,20.146,7.8,28.883,19.013a18.994,18.994,0,0,1,4.022,15.9c-1.64,8.33-8.112,15.171-10.415,16.488-.523.3-1.055.557-1.587.806-1.093-16.849-6-28.164-6.338-28.933a3.9,3.9,0,0,0-7.116,3.184c.078.177,4.837,11.193,5.693,27.52a15.725,15.725,0,0,1-5.491-.965M70.6,106.085a8.777,8.777,0,0,1-7.53.374c-3.813-1.581-7.847-6.428-11.744-11.109-1.27-1.525-2.521-3.029-3.76-4.42a31.132,31.132,0,0,0-5.958-5.114c4.921-2.633,12.787-5.74,21.612-5.108a12.306,12.306,0,0,1,9.513,5.03,20.007,20.007,0,0,1,3.58,12.124,69.889,69.889,0,0,0-7.362-5.117,3.894,3.894,0,0,0-3.919,6.73,71.761,71.761,0,0,1,7.421,5.338,10.2,10.2,0,0,1-1.852,1.273M32.42,193.046a3.681,3.681,0,1,1,3.682-3.682,3.679,3.679,0,0,1-3.682,3.682m31.6,21.4a3.681,3.681,0,1,1,3.679-3.682,3.683,3.683,0,0,1-3.679,3.682m54.828,3.9a3.679,3.679,0,1,1-3.682-3.682,3.683,3.683,0,0,1,3.682,3.682m32.538-3.9a3.681,3.681,0,1,1,3.686-3.682,3.686,3.686,0,0,1-3.686,3.682m35.937-35.034a3.681,3.681,0,1,1-3.686,3.682,3.688,3.688,0,0,1,3.686-3.682" transform="translate(44.254 28.377)" fill="#fff"/><path d="M43.775,60.575a3.9,3.9,0,0,0-3.894-3.894H18.3a3.894,3.894,0,1,0,0,7.788H39.881a3.9,3.9,0,0,0,3.894-3.894" transform="translate(30.436 119.753)" fill="#fff"/><path d="M54.983,54.433a11.471,11.471,0,1,0,4.507-7.539,11.363,11.363,0,0,0-4.507,7.539m9.148-1.286a3.682,3.682,0,1,1-1.444,2.415,3.666,3.666,0,0,1,1.444-2.415" transform="translate(115.903 94.285)" fill="#fff"/><path d="M62.327,47.525a19.346,19.346,0,0,1,16.3,21.932,3.9,3.9,0,0,0,3.29,4.423,3.939,3.939,0,0,0,.573.04,3.89,3.89,0,0,0,3.844-3.328A27.148,27.148,0,0,0,63.466,39.815a3.9,3.9,0,0,0-1.139,7.71" transform="translate(124.655 84.032)" fill="#fff"/><path d="M63.126,42.1a36.426,36.426,0,0,1,30.7,41.3,3.9,3.9,0,0,0,3.287,4.42,4.01,4.01,0,0,0,.576.04,3.89,3.89,0,0,0,3.844-3.328A44.224,44.224,0,0,0,64.265,34.391a3.9,3.9,0,0,0-1.139,7.71" transform="translate(126.343 72.576)" fill="#fff"/><path d="M64.724,37.237a49.43,49.43,0,0,1,41.655,56.036,3.894,3.894,0,0,0,3.287,4.423,3.938,3.938,0,0,0,.573.04,3.89,3.89,0,0,0,3.844-3.328A57.226,57.226,0,0,0,65.863,29.526a3.9,3.9,0,0,0-1.139,7.71" transform="translate(129.72 62.303)" fill="#fff"/></g></svg>